<?xml version="1.0" standalone="no"?>
<!DOCTYPE svg PUBLIC "-//W3C//DTD SVG 20010904//EN"
 "http://www.w3.org/TR/2001/REC-SVG-20010904/DTD/svg10.dtd">
<svg version="1.0" xmlns="http://www.w3.org/2000/svg"
 width="1000.000000pt" height="666.000000pt" viewBox="0 0 1000.000000 666.000000"
 preserveAspectRatio="xMidYMid meet">

<g transform="translate(0.000000,666.000000) scale(0.100000,-0.100000)"
fill="#000000" stroke="none">
<path d="M2930 6644 c10 -11 23 -14 51 -9 32 6 40 3 53 -18 9 -13 18 -42 20
-65 2 -22 13 -53 25 -67 13 -18 21 -42 21 -66 0 -40 5 -54 50 -154 15 -33 33
-84 40 -114 7 -30 19 -66 26 -80 8 -14 14 -32 14 -40 0 -8 8 -40 19 -70 49
-150 61 -190 67 -236 3 -27 15 -70 25 -95 10 -25 25 -75 33 -111 8 -37 24 -82
34 -100 11 -19 23 -56 27 -84 4 -27 13 -66 21 -86 8 -20 16 -47 18 -60 1 -13
16 -38 33 -54 16 -17 32 -37 36 -45 4 -12 7 -13 15 -2 5 8 13 12 18 10 13 -4
47 69 47 101 0 14 -1 46 -3 71 -2 30 4 61 20 95 44 98 48 110 55 150 9 46 12
69 19 144 3 30 10 57 17 61 8 6 8 9 0 13 -8 4 -7 5 1 3 8 -2 13 -29 14 -82 2
-43 3 -79 4 -79 1 0 3 -20 6 -45 4 -43 24 -82 24 -47 0 9 13 31 28 49 20 22
31 49 36 83 3 27 10 53 16 59 6 6 5 17 -1 30 -9 18 -7 17 9 -3 16 -20 22 -22
40 -12 11 6 29 10 39 8 19 -2 23 3 23 28 0 8 -6 12 -14 9 -8 -3 -26 2 -40 11
-14 10 -35 15 -46 12 -38 -10 -64 68 -48 144 6 26 27 48 51 51 24 3 24 2 16
130 -3 46 -5 53 -15 40 -12 -16 -12 -17 -5 45 0 7 8 10 18 6 9 -4 14 -2 10 3
-3 6 -7 43 -8 82 -1 49 -6 72 -14 72 -13 0 -29 69 -30 132 0 20 -4 40 -9 45
-5 5 -6 3 -2 -4 4 -7 3 -13 -1 -13 -5 0 -15 6 -22 13 -11 10 -12 8 -6 -12 5
-16 4 -21 -4 -17 -7 5 -11 -2 -11 -16 -1 -29 -22 -58 -43 -58 -9 0 -18 -4 -22
-9 -3 -5 -22 -8 -43 -6 -20 2 -42 -1 -49 -7 -21 -17 -40 8 -48 60 -3 26 -12
68 -20 93 -13 46 -10 94 8 117 7 9 -58 12 -323 12 -300 0 -331 -2 -320 -16z
m528 -263 c17 -7 32 -17 32 -23 0 -5 4 -7 9 -3 12 7 27 -92 30 -202 1 -22 6
-33 16 -33 8 0 15 4 15 8 0 5 11 14 23 19 20 9 29 7 53 -13 16 -13 34 -23 39
-24 18 0 33 -36 31 -71 -2 -19 2 -37 7 -41 7 -4 6 -13 -4 -24 -8 -10 -9 -15
-3 -11 7 4 14 -2 17 -15 8 -30 1 -35 -22 -14 -13 12 -21 14 -26 7 -13 -22 -79
-49 -100 -40 -11 4 -32 8 -47 8 -65 2 -118 60 -110 122 3 25 64 100 79 98 4 0
9 4 11 10 2 6 -1 11 -7 11 -6 0 -11 6 -11 14 0 8 -7 17 -16 20 -8 3 -12 10 -9
16 3 5 -1 10 -9 10 -9 0 -16 -4 -16 -10 0 -14 -79 -33 -107 -25 -14 3 -36 17
-50 31 -21 21 -24 32 -20 60 8 47 42 91 85 112 42 20 63 20 110 3z m422 -291
c0 -5 -5 -10 -11 -10 -5 0 -7 5 -4 10 3 6 8 10 11 10 2 0 4 -4 4 -10z m-2 -51
c-1 -17 -4 -25 -8 -18 -7 10 -2 49 5 49 2 0 3 -14 3 -31z"/>
<path d="M3755 6618 c3 -41 24 -68 52 -68 16 0 17 22 1 38 -9 9 -9 12 1 12 11
0 11 3 1 15 -10 13 -7 17 21 30 l34 14 -57 1 -56 0 3 -42z"/>
<path d="M4094 6644 c9 -8 16 -20 16 -25 0 -6 5 -7 10 -4 6 4 17 1 25 -5 16
-14 35 -5 35 16 0 8 7 14 15 14 8 0 15 5 15 10 0 6 -29 10 -66 10 -59 0 -64
-1 -50 -16z"/>
<path d="M4515 6650 c4 -6 11 -8 16 -5 14 9 11 15 -7 15 -8 0 -12 -5 -9 -10z"/>
<path d="M4710 6636 c0 -43 62 -40 65 3 1 17 -4 21 -32 21 -28 0 -33 -3 -33
-24z"/>
<path d="M5223 6615 c1 -25 5 -45 8 -45 3 0 6 -7 6 -15 0 -8 -4 -15 -8 -15 -4
0 -8 -57 -8 -127 -1 -71 -6 -144 -10 -164 -5 -21 -5 -43 0 -50 14 -22 11 -137
-3 -142 -10 -3 -9 -8 2 -22 9 -11 10 -16 3 -11 -8 4 -13 1 -13 -9 0 -9 5 -13
10 -10 6 4 10 -9 10 -30 0 -31 3 -36 18 -30 20 8 20 8 50 6 12 0 39 -17 59
-38 26 -26 38 -32 42 -22 13 40 28 37 50 -9 15 -30 19 -48 12 -50 -25 -8 -10
-49 30 -82 32 -28 39 -39 34 -58 -3 -14 -13 -31 -20 -39 -8 -8 -15 -20 -15
-28 0 -7 -9 -34 -20 -59 -23 -54 -16 -58 23 -16 16 17 33 28 38 24 5 -3 10 3
10 13 1 10 3 32 5 48 2 17 5 46 7 65 1 19 10 46 19 58 13 19 14 30 6 52 -6 18
-6 35 0 47 12 23 12 110 -1 146 -6 20 -6 32 2 40 6 6 11 28 11 48 0 20 7 53
16 74 9 22 10 34 4 30 -20 -12 -100 17 -121 44 -39 50 -5 133 62 151 35 10 42
18 38 48 -1 4 -5 6 -10 5 -4 -2 -5 5 -2 14 4 11 8 13 11 5 2 -7 8 -10 13 -6 5
3 8 0 7 -7 -4 -14 49 -31 58 -18 3 5 16 9 28 9 19 0 28 10 44 50 l21 50 -24
24 -23 23 -4 -58 c-2 -33 1 -60 6 -62 6 -2 2 -6 -8 -10 -10 -4 -15 -3 -11 3 3
6 1 10 -5 10 -7 0 -9 7 -6 16 3 8 2 12 -4 9 -13 -8 -13 1 0 26 8 14 6 27 -5
50 -9 17 -14 37 -11 45 3 7 0 17 -7 21 -8 5 -3 10 13 14 14 4 -79 7 -207 8
l-232 1 2 -45z m413 0 c-1 -8 -5 -17 -8 -21 -5 -4 -4 16 1 34 3 9 9 -1 7 -13z
m-336 -515 c6 -11 8 -25 5 -30 -10 -15 -35 -12 -35 5 0 8 -4 15 -9 15 -5 0
-11 7 -15 15 -9 24 41 19 54 -5z m125 -69 c0 -14 -6 -26 -14 -29 -8 -3 -11 0
-7 6 3 6 2 13 -4 17 -17 11 -11 37 8 33 10 -2 17 -12 17 -27z"/>
<path d="M5700 6645 c0 -8 9 -15 20 -15 23 0 39 -26 33 -51 -10 -35 13 -19 26
19 8 20 16 43 18 50 4 8 -9 12 -46 12 -39 0 -51 -4 -51 -15z"/>
<path d="M9690 6628 c0 -18 0 -66 0 -105 0 -46 -4 -73 -10 -73 -6 0 -8 -6 -4
-12 4 -7 -2 -4 -14 6 -22 19 -22 19 -45 -2 -15 -14 -27 -18 -37 -12 -19 12
-40 -6 -40 -35 0 -24 -16 -35 -37 -28 -7 3 -13 9 -13 14 0 6 6 7 13 3 6 -4 4
2 -7 14 -16 19 -36 22 -36 6 0 -3 5 -2 10 1 6 4 10 -5 8 -24 -2 -30 -8 -35
-35 -32 -6 1 -14 -20 -18 -49 -4 -27 -12 -53 -18 -57 -15 -9 -69 -4 -83 8 -6
5 -19 7 -28 3 -12 -5 -13 -10 -6 -25 6 -10 16 -18 23 -16 7 1 11 -7 9 -18 -1
-11 -3 -39 -3 -62 0 -53 -35 -94 -54 -63 -3 6 -13 10 -22 10 -11 0 -14 -7 -11
-25 3 -14 1 -25 -4 -25 -5 0 -6 -5 -2 -11 5 -8 9 -8 14 1 6 9 14 8 34 -5 22
-15 26 -23 21 -49 -3 -17 -7 -42 -9 -55 -2 -13 -10 -27 -17 -32 -10 -6 -14
-28 -14 -68 1 -33 -1 -58 -4 -56 -2 3 -9 -3 -16 -12 -8 -11 -25 -16 -49 -15
-21 1 -36 -3 -36 -10 0 -6 -3 -9 -6 -5 -4 3 -15 -4 -25 -16 -10 -12 -18 -16
-19 -9 0 18 -20 15 -20 -4 0 -12 6 -15 26 -10 17 5 23 3 19 -4 -3 -5 2 -10 13
-10 13 0 22 9 27 28 4 15 10 21 12 15 3 -7 18 -13 33 -13 16 0 32 -5 35 -11 4
-6 14 -8 22 -5 8 3 11 1 8 -5 -4 -5 1 -21 10 -35 9 -14 13 -33 10 -43 -6 -21
-44 -34 -72 -25 -11 4 -14 3 -6 -3 16 -12 -10 -45 -39 -48 -13 -1 -26 -3 -30
-4 -4 0 -4 -8 -1 -18 4 -11 3 -14 -5 -9 -7 4 -12 3 -12 -2 0 -5 10 -14 23 -20
12 -7 33 -20 47 -29 22 -16 23 -16 18 -1 -4 10 -1 19 8 22 9 3 12 1 9 -4 -3
-6 -1 -10 6 -10 8 0 7 -5 -2 -17 -8 -9 -9 -14 -4 -11 6 4 10 -10 11 -32 2 -59
9 -70 48 -70 39 0 62 -25 45 -51 -5 -7 -6 -30 -3 -49 4 -24 2 -31 -4 -21 -8
11 -10 11 -15 0 -4 -10 -6 -9 -6 4 -1 23 -13 22 -29 -4 -11 -18 -11 -24 3 -39
9 -10 15 -27 12 -37 -3 -10 -8 -28 -12 -40 -5 -18 -3 -22 9 -17 9 4 18 0 22
-10 3 -9 10 -13 15 -10 5 3 6 -2 3 -10 -8 -20 33 -30 68 -17 20 8 29 7 38 -5
7 -7 23 -14 36 -14 25 0 44 -26 44 -60 0 -12 7 -28 16 -37 10 -10 12 -19 5
-26 -5 -5 -7 -16 -4 -23 3 -8 -1 -14 -10 -14 -12 0 -14 -7 -11 -27 7 -36 21
-44 53 -27 36 19 44 18 75 -11 15 -14 33 -25 40 -25 15 0 56 42 56 58 0 7 6
12 13 13 6 0 3 5 -8 10 -16 8 -15 9 10 5 16 -2 38 0 47 5 14 8 18 6 19 -8 1
-10 5 -2 11 18 6 22 19 42 34 50 14 7 22 19 20 26 -3 7 -1 15 4 18 6 4 10 12
9 18 0 9 -2 9 -5 0 -3 -7 -11 -11 -17 -9 -7 1 -9 1 -5 -1 4 -2 4 -11 1 -19 -9
-25 -22 -5 -21 37 0 22 -2 43 -6 46 -7 7 13 33 25 33 5 0 9 -5 9 -11 0 -5 -6
-7 -12 -3 -8 5 -7 0 2 -11 14 -18 15 -18 18 3 2 12 9 22 17 22 12 0 25 21 24
37 -1 13 35 27 39 15 2 -7 10 -12 18 -12 20 0 21 1536 1 1564 -9 13 -23 17
-52 14 -38 -3 -40 -4 -40 -38 0 -42 -32 -80 -68 -80 -23 0 -26 5 -33 53 -4 28
-7 55 -6 60 1 4 -20 7 -47 7 -49 0 -50 0 -51 -32z m-197 -471 c4 3 7 -2 7 -12
0 -17 -1 -17 -18 -2 -10 10 -22 14 -27 10 -4 -5 -5 -2 -1 5 6 9 11 10 20 3 7
-6 16 -8 19 -4z m-76 -117 c-1 -8 3 -14 9 -13 7 1 10 -10 8 -28 -5 -45 -15
-55 -30 -34 -9 12 -10 22 -4 30 7 9 5 17 -7 26 -11 9 -14 10 -9 2 14 -24 -2
-13 -18 11 -16 25 -16 25 19 23 25 -1 34 -6 32 -17z m-57 -182 c0 -5 -7 -16
-15 -24 -8 -9 -15 -11 -15 -5 0 6 -3 10 -7 10 -19 -3 -23 2 -13 20 10 20 50
19 50 -1z m600 -62 c0 -2 -7 -6 -15 -10 -8 -3 -15 -1 -15 4 0 6 7 10 15 10 8
0 15 -2 15 -4z m-3 -33 c4 -12 -14 -27 -32 -28 -14 -1 -24 16 -18 31 6 16 45
12 50 -3z m-67 3 c0 -2 3 -11 6 -20 5 -12 0 -15 -18 -14 -19 2 -24 7 -20 20 4
15 32 27 32 14z m-409 -52 c17 -21 23 -58 7 -48 -7 5 -9 2 -5 -9 4 -11 2 -14
-8 -11 -8 3 -11 12 -8 20 4 10 0 12 -11 8 -18 -7 -22 11 -5 21 6 4 8 13 5 21
-7 19 8 18 25 -2z m289 -18 c0 -3 -4 -8 -10 -11 -5 -3 -10 -1 -10 4 0 6 5 11
10 11 6 0 10 -2 10 -4z m-410 -57 c0 -23 -33 -16 -37 7 -1 7 6 10 17 7 11 -3
20 -9 20 -14z m278 -44 c0 -16 -6 -25 -17 -25 -9 0 -12 -3 -6 -8 6 -4 11 -14
13 -23 1 -12 -5 -16 -25 -14 -17 0 -28 7 -28 16 -1 15 35 46 48 41 5 -1 6 2 2
8 -5 9 1 30 9 30 2 0 4 -11 4 -25z m-157 -8 c-1 -4 -1 -14 -1 -22 0 -8 -13
-21 -28 -29 -26 -13 -28 -13 -29 7 -1 11 8 29 19 39 21 18 40 20 39 5z m302
-38 c13 -21 -12 -80 -32 -76 -40 6 -71 67 -35 67 8 0 17 7 21 15 7 19 32 16
46 -6z m-373 -23 c0 -3 -4 -8 -10 -11 -5 -3 -10 -1 -10 4 0 6 5 11 10 11 6 0
10 -2 10 -4z m-98 -32 c-6 -29 -21 -41 -32 -24 -8 12 -10 11 -11 -5 l0 -20 -8
20 c-6 14 -4 22 8 27 9 4 12 7 6 7 -5 1 -3 6 5 11 21 14 36 6 32 -16z m183
-53 c-3 -6 -11 -11 -17 -11 -6 0 -6 6 2 15 14 17 26 13 15 -4z m165 -61 c8 -5
11 -10 6 -10 -6 0 -1 -7 10 -15 16 -13 17 -16 4 -25 -27 -18 -38 -10 -46 35
-5 27 2 31 26 15z m-215 -60 c3 -5 -1 -20 -10 -33 -8 -13 -12 -27 -8 -30 3 -4
1 -7 -5 -7 -18 0 -23 18 -9 32 8 7 13 21 11 31 -2 18 11 23 21 7z m135 -50
c21 -21 23 -34 12 -60 -10 -22 -31 -23 -39 -3 -4 10 -15 25 -26 33 -22 18 -14
50 14 50 10 0 28 -9 39 -20z m-125 -120 c3 -5 1 -10 -4 -10 -6 0 -11 5 -11 10
0 6 2 10 4 10 3 0 8 -4 11 -10z m103 -76 c-3 -14 -5 -12 -10 9 -3 19 -2 25 4
19 6 -6 8 -18 6 -28z m207 -124 c3 -5 1 -10 -4 -10 -6 0 -11 5 -11 10 0 6 2
10 4 10 3 0 8 -4 11 -10z m-204 -37 c-12 -20 -14 -14 -5 12 4 9 9 14 11 11 3
-2 0 -13 -6 -23z"/>
<path d="M6490 6607 c0 -26 4 -47 9 -47 11 0 9 76 -2 87 -4 3 -7 -15 -7 -40z"/>
<path d="M4846 6606 c-3 -11 -6 -30 -6 -41 1 -18 3 -17 26 9 27 30 28 48 2 52
-9 1 -19 -7 -22 -20z"/>
<path d="M2946 6569 c2 -4 -5 -10 -16 -14 -11 -3 -20 -10 -20 -15 0 -12 28
-20 45 -14 19 8 20 51 0 51 -8 0 -12 -4 -9 -8z"/>
<path d="M4955 6523 c-16 -8 -40 -25 -52 -36 -20 -17 -21 -23 -10 -36 18 -21
29 -51 18 -51 -4 0 -7 -10 -7 -22 1 -14 -4 -22 -12 -20 -8 1 -11 -1 -8 -6 8
-14 -7 -29 -45 -45 -34 -14 -36 -17 -37 -63 -1 -33 -8 -54 -19 -64 -17 -14
-24 -32 -27 -70 -1 -9 6 -14 18 -12 11 2 15 -1 11 -7 -3 -6 1 -14 9 -17 19 -7
22 -97 5 -157 -8 -30 -13 -36 -26 -29 -9 5 -24 7 -35 4 -15 -4 -18 -12 -16
-46 2 -22 7 -39 12 -38 5 2 13 -2 18 -10 6 -9 7 -6 3 8 -7 27 22 61 38 45 6
-6 13 -43 15 -83 3 -54 9 -78 23 -94 11 -11 16 -25 12 -29 -5 -5 1 -3 11 5 18
14 19 13 13 -2 -7 -19 8 -34 18 -18 8 12 14 99 16 210 1 47 6 91 13 99 8 11 8
13 -1 8 -8 -5 -8 1 2 19 8 15 12 31 9 36 -3 4 1 5 9 2 8 -3 18 -1 21 4 3 6 15
8 26 5 16 -4 21 1 26 26 4 17 10 29 14 26 4 -3 10 4 13 15 3 13 0 20 -9 20
-11 0 -12 5 -6 16 6 11 4 32 -4 60 -8 28 -12 85 -10 156 1 62 -3 134 -8 160
l-11 46 -30 -15z"/>
<path d="M3003 6473 c-7 -3 -13 -15 -13 -28 0 -20 42 -195 56 -235 3 -8 5 -16
5 -17 0 -2 16 -40 35 -85 20 -46 38 -94 41 -108 2 -14 11 -38 19 -54 8 -16 14
-35 14 -42 0 -7 5 -16 12 -20 8 -5 9 0 4 17 -4 13 -15 56 -25 94 -10 39 -28
96 -40 127 -12 31 -24 65 -26 75 -2 10 -10 45 -19 78 -8 33 -18 74 -21 90 -11
63 -30 112 -42 108z"/>
<path d="M4252 6455 c0 -16 2 -22 5 -12 2 9 2 23 0 30 -3 6 -5 -1 -5 -18z"/>
<path d="M5079 6378 c-3 -190 4 -353 14 -361 7 -4 18 -11 26 -16 8 -5 14 -27
14 -59 1 -28 5 -48 9 -46 4 3 8 16 8 30 0 14 4 23 8 20 4 -2 14 0 22 6 12 8
12 9 -2 4 -22 -7 -22 -6 -3 30 22 42 20 85 -5 91 -14 4 -21 15 -22 37 -1 17
-2 42 -3 56 -1 14 4 40 12 59 14 36 18 75 6 68 -5 -3 -9 10 -10 29 -1 19 2 34
6 34 10 0 7 52 -3 69 -4 6 -23 11 -42 11 l-34 0 -1 -62z"/>
<path d="M4725 6280 c-8 -12 40 -31 59 -24 8 3 12 12 10 19 -5 13 -28 14 -40
2 -11 -11 -26 -8 -19 3 3 6 4 10 1 10 -3 0 -8 -5 -11 -10z"/>
<path d="M4000 6241 c0 -5 5 -22 11 -38 9 -25 12 -26 20 -11 7 12 6 25 -1 38
-11 21 -30 27 -30 11z"/>
<path d="M4083 6242 c-17 -12 -23 -52 -7 -52 8 0 14 -5 14 -11 0 -8 5 -8 15 1
30 25 10 82 -22 62z"/>
<path d="M4467 6236 c-3 -8 0 -16 7 -19 6 -3 13 4 13 14 2 22 -12 25 -20 5z"/>
<path d="M1 6001 c0 -56 3 -70 9 -53 11 26 28 29 37 5 5 -13 9 -9 19 18 20 55
17 65 -26 87 l-40 19 1 -76z"/>
<path d="M4475 6052 c-22 -50 -22 -113 2 -196 5 -19 6 -19 16 0 18 32 22 94
11 166 -7 44 -19 56 -29 30z"/>
<path d="M4586 5978 c-3 -18 -10 -63 -16 -99 -15 -97 -13 -142 5 -135 8 3 15
0 15 -6 0 -7 5 -6 15 2 8 7 15 19 15 27 0 8 4 12 9 9 5 -3 14 8 20 25 8 22 7
51 -3 109 -8 43 -17 84 -21 90 -13 21 -34 9 -39 -22z"/>
<path d="M9190 5980 c0 -23 24 -47 42 -42 21 5 21 7 8 33 -11 20 -50 27 -50 9z"/>
<path d="M4030 5936 c0 -51 25 -84 34 -44 14 60 14 77 -1 82 -28 11 -33 6 -33
-38z"/>
<path d="M3180 5864 c0 -6 9 -37 21 -70 11 -32 27 -86 36 -119 9 -33 20 -62
23 -65 4 -3 9 -14 11 -24 2 -11 10 -21 17 -24 10 -3 -25 110 -57 183 -13 30
-22 57 -27 85 -5 26 -24 53 -24 34z"/>
<path d="M4046 5829 c-9 -46 -7 -79 4 -79 5 0 4 -18 -3 -42 -7 -24 -14 -77
-16 -119 -2 -70 -1 -77 21 -91 13 -8 35 -18 50 -21 14 -4 32 -9 40 -12 9 -4
14 2 15 16 1 13 7 34 13 48 17 42 1 121 -25 121 -8 0 -17 4 -20 10 -4 6 1 7
12 3 17 -6 17 -5 -1 15 -10 12 -22 19 -26 17 -4 -3 -10 4 -13 14 -4 16 0 18
24 14 38 -6 36 4 -6 50 -19 21 -35 41 -35 45 0 4 -7 15 -14 25 -12 16 -14 15
-20 -14z"/>
<path d="M5329 5797 c-17 -19 -35 -29 -53 -29 -21 0 -26 -4 -20 -17 17 -38 15
-97 -5 -145 -18 -41 -24 -46 -36 -36 -9 7 -27 10 -44 7 -25 -5 -34 -1 -55 24
-30 35 -42 89 -27 117 7 14 8 23 1 27 -5 3 -10 3 -11 -2 -2 -22 -8 -43 -17
-60 -10 -17 -11 -17 -17 0 -5 12 -11 14 -19 8 -8 -7 -12 -4 -12 9 0 10 3 18 6
18 20 -2 18 5 -10 29 -26 21 -33 24 -41 12 -5 -8 -7 -20 -4 -27 3 -8 0 -10 -7
-6 -7 5 -9 2 -5 -8 3 -9 3 -19 -1 -22 -3 -4 -7 -12 -8 -19 -1 -7 -5 -20 -9
-29 -9 -23 4 -23 20 -1 10 13 14 -4 20 -98 5 -63 7 -147 6 -186 -2 -40 0 -73
3 -73 23 0 55 24 65 49 14 32 52 51 102 51 23 0 29 5 29 21 0 15 5 19 16 15 8
-3 12 -2 9 3 -3 5 -1 12 5 16 6 4 8 11 5 16 -4 5 -2 9 3 9 12 0 33 -69 30 -97
-1 -13 -5 -23 -8 -23 -7 0 -5 -71 3 -90 4 -8 8 -44 9 -80 l3 -65 34 80 c20 47
35 99 36 126 1 35 8 53 28 75 23 24 27 36 24 77 -2 35 -10 56 -26 73 -12 13
-25 41 -28 62 -4 33 -1 44 27 76 27 31 31 40 23 59 -7 16 -6 28 3 42 12 18 11
22 -4 31 -14 9 -22 6 -43 -19z"/>
<path d="M4588 5664 c-2 -5 -3 -19 -3 -31 1 -12 -3 -21 -8 -20 -6 1 -12 -7
-14 -18 -3 -17 -2 -18 7 -5 10 13 11 13 9 0 -1 -8 2 -29 6 -46 5 -23 12 -31
28 -30 17 1 23 9 28 37 3 20 2 45 -2 55 -12 30 -46 68 -51 58z"/>
<path d="M2910 5592 c-8 -30 -6 -51 6 -93 10 -34 14 -73 11 -105 -6 -57 6 -92
18 -54 4 13 7 41 6 64 -1 23 -2 46 -2 51 0 6 2 20 4 31 5 20 10 104 8 132 -1
6 -10 12 -21 12 -14 0 -22 -10 -30 -38z"/>
<path d="M4930 5603 c0 -10 -3 -29 -7 -41 -5 -22 -4 -23 14 -12 24 15 30 70 8
70 -8 0 -15 -8 -15 -17z"/>
<path d="M5617 5603 c-4 -3 -7 -18 -7 -31 0 -31 13 -21 17 13 4 26 1 30 -10
18z"/>
<path d="M4540 5554 c0 -8 5 -12 10 -9 6 3 10 10 10 16 0 5 -4 9 -10 9 -5 0
-10 -7 -10 -16z"/>
<path d="M4857 5559 c-9 -6 -17 -18 -17 -27 1 -15 2 -16 13 -1 7 9 16 16 20
17 14 1 19 10 10 15 -5 3 -16 1 -26 -4z"/>
<path d="M0 5533 c0 -18 2 -33 4 -33 9 0 13 39 5 51 -6 10 -9 4 -9 -18z"/>
<path d="M3295 5520 c9 -43 24 -79 24 -62 1 8 6 10 14 6 6 -4 4 1 -5 12 -10
11 -19 30 -21 42 -2 12 -7 25 -11 29 -5 5 -5 -8 -1 -27z"/>
<path d="M5545 5510 c-20 -39 -19 -62 3 -58 13 2 17 14 18 46 0 23 -1 42 -3
42 -1 0 -9 -13 -18 -30z"/>
<path d="M52 5507 c-6 -71 1 -83 28 -47 22 29 21 38 -6 56 -18 12 -20 11 -22
-9z"/>
<path d="M3937 5453 c-8 -41 -58 -103 -81 -100 -10 1 -22 -5 -26 -13 -35 -68
-42 -89 -36 -101 19 -39 35 -61 52 -74 13 -10 14 -13 3 -10 -8 3 -23 -3 -33
-14 -17 -19 -17 -21 -2 -27 27 -10 65 5 104 40 35 33 36 35 19 53 -25 28 -22
91 5 120 11 12 22 33 22 45 1 13 5 28 9 35 4 6 3 14 -3 18 -5 3 -10 17 -10 31
0 33 -16 31 -23 -3z"/>
<path d="M2 5450 c0 -14 2 -19 5 -12 2 6 2 18 0 25 -3 6 -5 1 -5 -13z"/>
<path d="M1016 5443 c-8 -9 -6 -72 4 -103 4 -14 8 -19 9 -11 1 7 7 11 15 8 13
-5 56 42 56 62 0 13 -75 52 -84 44z"/>
<path d="M4060 5433 c-23 -9 -31 -26 -24 -53 9 -39 56 -131 70 -137 6 -2 14
-12 17 -22 3 -14 -1 -17 -17 -14 -12 3 -33 -4 -46 -15 -22 -18 -22 -20 -7 -42
8 -12 13 -29 10 -36 -3 -8 0 -14 7 -14 6 0 8 5 5 10 -4 7 3 9 18 6 39 -7 63
16 65 64 2 26 -1 39 -7 36 -6 -4 -4 5 4 20 7 15 19 30 25 34 6 4 13 27 16 53
5 35 2 50 -10 62 -8 9 -19 23 -24 32 -9 16 -76 27 -102 16z"/>
<path d="M8642 5415 c0 -16 2 -22 5 -12 2 9 2 23 0 30 -3 6 -5 -1 -5 -18z"/>
<path d="M3330 5395 c0 -14 4 -25 9 -25 4 0 6 11 3 25 -2 14 -6 25 -8 25 -2 0
-4 -11 -4 -25z"/>
<path d="M9159 5390 c-8 -9 -18 -24 -22 -33 -5 -14 -3 -15 13 -5 10 7 21 21
24 32 7 26 5 26 -15 6z"/>
<path d="M4276 5385 c-3 -8 -12 -12 -20 -9 -8 3 -17 1 -20 -4 -9 -16 4 -41 25
-47 28 -9 26 -68 -3 -96 -13 -12 -18 -19 -11 -15 6 3 18 0 25 -8 11 -12 17
-12 39 0 15 7 29 20 32 29 4 8 14 15 24 15 15 0 14 4 -7 20 -14 11 -33 17 -42
14 -24 -7 -20 36 6 57 19 16 19 16 -2 37 -26 26 -38 28 -46 7z"/>
<path d="M4829 5361 c-1 -3 -1 -9 0 -13 0 -5 -3 -8 -7 -8 -4 0 -8 -9 -8 -19 0
-11 3 -18 7 -15 9 5 21 -110 14 -139 -5 -17 -2 -26 10 -31 9 -3 13 -2 10 4 -3
6 -1 10 4 10 6 0 11 15 11 33 0 19 3 37 7 41 7 7 9 15 19 81 6 39 5 40 -30 51
-20 6 -37 8 -37 5z"/>
<path d="M3350 5316 c0 -8 5 -18 10 -21 6 -3 10 1 10 9 0 8 -4 18 -10 21 -5 3
-10 -1 -10 -9z"/>
<path d="M3367 5250 c3 -11 7 -20 9 -20 2 0 4 9 4 20 0 11 -4 20 -9 20 -5 0
-7 -9 -4 -20z"/>
<path d="M5118 5193 c-10 -2 -15 -10 -11 -19 4 -12 8 -12 19 3 13 17 13 17 14
0 0 -15 2 -16 14 -5 10 9 11 15 2 20 -6 4 -13 7 -16 7 -3 -1 -13 -3 -22 -6z"/>
<path d="M3406 5162 c-4 -6 0 -22 8 -34 7 -13 12 -36 10 -53 -3 -30 10 -47 31
-39 23 9 5 114 -20 114 -7 0 -15 5 -17 12 -3 9 -6 9 -12 0z"/>
<path d="M9256 5064 c-4 -11 -15 -15 -35 -12 -21 3 -32 -1 -41 -15 -16 -26 3
-39 34 -24 24 11 61 55 53 63 -2 3 -7 -3 -11 -12z"/>
<path d="M5508 4993 c-11 -44 -13 -75 -7 -90 6 -16 5 -23 -4 -23 -12 -1 21
-30 34 -30 13 0 38 94 35 133 -1 21 -9 43 -17 48 -12 7 -12 9 1 9 13 0 13 1 0
10 -24 15 -25 13 -42 -57z"/>
<path d="M3303 5013 c-7 -3 -13 -21 -13 -41 0 -36 0 -36 16 -14 17 25 15 61
-3 55z"/>
<path d="M3882 5013 c-9 -4 -8 -14 7 -41 11 -21 22 -46 26 -57 l7 -20 8 20 c4
11 5 24 2 29 -3 5 3 15 13 22 18 13 18 14 0 34 -18 19 -37 24 -63 13z"/>
<path d="M2 4985 c0 -16 2 -22 5 -12 2 9 2 23 0 30 -3 6 -5 -1 -5 -18z"/>
<path d="M1062 4991 c-8 -4 -12 -23 -10 -44 l2 -37 23 22 c13 12 23 27 23 34
0 18 -24 34 -38 25z"/>
<path d="M9390 4989 c0 -5 5 -7 10 -4 6 3 10 8 10 11 0 2 -4 4 -10 4 -5 0 -10
-5 -10 -11z"/>
<path d="M4052 4981 c-10 -6 -10 -14 -3 -35 6 -15 10 -30 10 -34 -4 -22 3 -33
15 -29 10 4 13 1 9 -9 -3 -7 0 -15 6 -15 6 -1 16 -2 21 -3 6 0 15 -8 20 -16 8
-13 11 -12 24 5 12 16 12 23 1 38 -7 10 -11 31 -8 47 3 21 -1 31 -14 38 -30
15 -67 22 -81 13z"/>
<path d="M1826 4972 c-2 -4 -2 -37 1 -72 l6 -65 14 50 c13 51 10 95 -7 95 -5
0 -11 -4 -14 -8z"/>
<path d="M3699 4974 c-3 -9 -7 -25 -8 -35 0 -5 -6 -7 -13 -3 -10 7 -40 8 -78
5 -16 -2 -12 -37 6 -52 12 -10 17 -10 23 0 6 9 10 6 16 -11 l7 -23 8 25 c7 22
8 22 10 5 1 -11 4 -33 6 -49 3 -31 59 -90 75 -80 5 3 7 9 4 14 -3 5 -1 11 4
15 6 3 8 11 5 19 -5 13 7 73 21 111 5 11 5 17 0 13 -11 -11 -35 11 -35 32 0
12 -8 18 -25 18 -14 0 -26 -2 -26 -4z"/>
<path d="M5385 4959 c-9 -13 15 -100 25 -94 4 3 7 -3 6 -12 0 -9 4 -18 10 -20
16 -5 17 106 2 124 -13 16 -34 17 -43 2z"/>
<path d="M3841 4944 c0 -11 3 -14 6 -6 3 7 2 16 -1 19 -3 4 -6 -2 -5 -13z"/>
<path d="M9438 4942 c-4 -12 -2 -25 4 -28 15 -10 19 1 10 26 l-9 24 -5 -22z"/>
<path d="M9907 4933 c-4 -3 -7 -11 -7 -17 0 -6 5 -5 12 2 6 6 9 14 7 17 -3 3
-9 2 -12 -2z"/>
<path d="M5137 4915 c12 -8 27 -13 35 -12 7 2 9 2 5 -1 -4 -2 -3 -10 3 -17 9
-11 7 -14 -9 -12 -11 0 -17 5 -14 11 4 5 -1 7 -10 3 -10 -4 -17 -1 -17 6 0 7
-3 8 -8 2 -9 -12 -46 -20 -39 -8 3 5 -29 8 -71 7 -62 -1 -78 -5 -80 -18 -2 -9
3 -16 13 -16 9 0 14 -4 10 -10 -3 -5 -11 -7 -19 -4 -7 3 -25 0 -40 -6 -20 -7
-25 -7 -20 1 4 8 -4 9 -27 4 -41 -9 -89 -33 -88 -43 3 -19 -2 -25 -11 -12 -6
10 -10 11 -10 3 0 -7 -7 -13 -15 -13 -8 0 -15 -5 -15 -12 0 -6 -3 -9 -6 -6 -3
4 -17 0 -31 -7 -14 -7 -32 -11 -41 -8 -8 4 -22 -3 -32 -17 -10 -13 -28 -22
-44 -22 -25 0 -39 -11 -42 -34 -1 -6 -9 -24 -17 -40 -11 -20 -16 -24 -17 -11
-1 52 -90 -40 -90 -94 0 -10 -9 -23 -20 -29 -17 -9 -18 -14 -9 -32 6 -11 7
-18 1 -15 -21 14 -44 -19 -44 -62 1 -33 -3 -41 -16 -39 -9 2 -18 -5 -20 -14
-2 -12 3 -18 13 -18 12 0 15 -5 10 -17 -10 -24 -7 -71 6 -96 6 -11 13 -88 15
-171 4 -172 5 -176 15 -176 4 0 13 -17 20 -37 12 -37 12 -37 22 -13 5 14 10
79 11 145 2 85 7 131 19 158 9 20 14 37 11 37 -8 0 25 59 38 67 7 4 31 30 53
58 56 69 105 116 116 109 5 -3 9 -1 9 5 0 6 17 13 38 16 20 4 70 18 111 31 70
24 309 52 331 39 4 -3 10 -1 12 4 5 15 78 43 78 31 0 -6 4 -8 10 -5 18 11 54
18 108 21 49 2 54 0 77 -30 14 -18 31 -50 39 -72 8 -21 22 -56 31 -77 9 -22
11 -36 6 -32 -8 4 -8 -2 -2 -18 6 -14 6 -29 0 -38 -21 -33 -10 -80 34 -141 10
-14 17 -41 17 -59 -2 -91 0 -120 12 -197 10 -66 16 -83 32 -88 12 -4 22 0 29
11 14 26 63 76 69 70 2 -3 13 12 24 33 14 24 21 60 23 105 3 77 8 96 50 194
17 40 30 85 30 100 l-1 28 -7 -30 c-5 -19 -7 2 -6 54 1 77 -2 89 -30 135 -17
28 -35 51 -42 51 -14 0 -28 13 -28 28 0 6 -16 20 -35 31 -34 20 -35 20 -20 1
8 -11 20 -23 25 -27 7 -5 6 -8 0 -8 -6 0 -26 13 -45 30 -19 16 -27 27 -17 24
9 -3 17 -1 17 5 0 6 -6 11 -13 11 -7 0 -23 9 -34 20 -16 14 -31 18 -60 14 -21
-2 -32 -2 -25 2 22 10 2 24 -27 18 -18 -4 -33 0 -43 10 -9 8 -18 13 -21 10 -3
-4 -9 11 -13 32 -4 22 -21 56 -38 77 -47 58 -154 127 -198 127 l-22 0 21 -15z
m103 -261 c0 -2 -7 -4 -15 -4 -8 0 -15 4 -15 10 0 5 7 7 15 4 8 -4 15 -8 15
-10z m195 -95 c-10 -15 -25 -10 -19 6 4 8 10 12 15 9 5 -3 7 -10 4 -15z
m-1011 -51 c-3 -4 -9 -8 -15 -8 -5 0 -9 4 -9 8 0 5 7 9 15 9 8 0 12 -4 9 -9z"/>
<path d="M9412 4901 c-32 -8 -32 -25 -1 -29 17 -2 29 3 32 12 8 19 -2 24 -31
17z"/>
<path d="M4880 4880 c-9 -6 -10 -10 -3 -10 6 0 15 5 18 10 8 12 4 12 -15 0z"/>
<path d="M9783 4786 c-33 -15 -30 -54 4 -67 36 -14 53 -5 53 28 0 35 -26 53
-57 39z"/>
<path d="M1 4725 c1 -75 14 -96 18 -28 1 26 2 49 3 52 2 21 -3 41 -12 41 -5 0
-9 -29 -9 -65z"/>
<path d="M55 4772 c-8 -8 -6 -95 3 -108 4 -6 16 6 28 31 l21 41 -23 21 c-13
11 -26 18 -29 15z"/>
<path d="M5721 4680 c26 -34 34 -32 25 5 -4 16 -13 25 -26 25 -20 0 -20 -1 1
-30z"/>
<path d="M5690 4670 c13 -11 25 -20 28 -20 3 0 -3 9 -13 20 -10 11 -23 20 -28
20 -6 0 0 -9 13 -20z"/>
<path d="M3720 4677 c0 -15 24 -67 30 -67 11 0 -8 58 -21 66 -5 3 -9 3 -9 1z"/>
<path d="M5705 4623 c20 -18 30 -22 33 -13 5 15 -25 40 -47 40 -11 -1 -7 -9
14 -27z"/>
<path d="M1830 4572 c0 -59 13 -68 29 -20 10 28 9 35 -9 52 l-20 20 0 -52z"/>
<path d="M5718 4580 c35 -39 44 -64 12 -35 -17 15 -23 16 -33 5 -10 -10 -9
-11 2 -5 9 5 18 3 25 -6 6 -8 18 -19 26 -26 13 -10 16 -9 17 6 1 10 -17 36
-40 57 -40 37 -40 37 -9 4z"/>
<path d="M3733 4540 c-3 -11 -12 -20 -19 -20 -8 0 -14 -9 -14 -20 0 -11 4 -20
10 -20 5 0 7 6 4 14 -3 9 1 13 12 13 11 -2 18 7 21 26 4 31 -6 37 -14 7z"/>
<path d="M5796 4360 c8 -43 14 -51 14 -19 0 13 -5 31 -10 39 -7 11 -8 5 -4
-20z"/>
<path d="M1033 4373 c-9 -3 -8 -11 3 -29 9 -13 14 -31 10 -39 -3 -8 -1 -28 5
-43 l11 -27 18 35 c24 44 24 57 2 83 -18 23 -29 27 -49 20z"/>
<path d="M3566 4326 c-3 -13 -3 -323 0 -688 10 -1114 12 -1026 -23 -1034 -32
-8 -56 19 -50 56 8 38 -9 63 -33 50 -25 -13 -26 -47 -2 -73 9 -11 12 -18 6
-14 -6 4 -19 -2 -29 -13 -10 -11 -31 -20 -46 -20 -15 0 -35 -7 -44 -16 -19
-19 -75 -27 -75 -10 1 6 5 30 9 53 5 23 5 41 2 38 -4 -2 -7 28 -6 66 0 38 4
69 9 69 5 0 3 7 -4 15 -6 8 -10 20 -7 27 3 8 6 6 6 -5 1 -10 6 -15 12 -12 7 5
5 12 -4 23 -21 24 -27 119 -7 107 23 -14 13 62 -11 88 -15 17 -22 18 -32 8
-16 -16 -14 -105 4 -127 8 -10 9 -15 2 -11 -10 6 -11 -29 -8 -155 3 -90 6
-190 8 -223 7 -105 -20 -136 -105 -120 -45 9 -73 -19 -61 -61 4 -16 8 -31 8
-34 8 -29 29 -62 53 -81 31 -24 27 -44 -8 -44 -26 0 -38 -44 -34 -124 3 -80
-2 -115 -16 -106 -5 3 -11 1 -15 -5 -3 -5 -11 -10 -16 -10 -6 0 -7 5 -3 12 4
7 3 8 -5 4 -6 -4 -9 -12 -6 -17 4 -5 1 -9 -4 -9 -15 0 -14 -27 1 -36 7 -5 9
-2 4 7 -6 10 -4 10 6 -1 7 -8 27 -16 43 -18 57 -5 64 -6 59 -14 -3 -5 5 -6 18
-4 13 3 23 5 23 6 0 0 39 3 88 6 100 5 98 8 66 -82 -11 -32 -24 -77 -28 -99
-5 -22 -25 -101 -44 -175 -80 -304 -107 -604 -73 -814 16 -93 17 -75 -24 -456
-5 -52 -13 -130 -16 -172 l-7 -78 2035 0 2035 0 6 252 c4 138 9 254 12 257 3
2 11 -1 18 -9 10 -10 9 -11 -3 -5 -12 6 -13 5 -2 -6 16 -17 16 -43 0 -33 -9 5
-9 3 1 -9 7 -9 17 -14 22 -12 4 3 13 -3 19 -12 9 -15 10 -14 5 7 -6 24 -6 25
10 5 16 -19 16 -19 13 -1 -2 12 4 20 16 22 25 4 58 -14 51 -27 -4 -5 -1 -8 7
-7 7 2 12 -4 11 -12 -3 -14 46 -55 64 -55 5 0 11 25 15 55 4 30 9 69 12 86 2
16 0 37 -5 45 -6 10 -9 5 -9 -18 0 -17 -4 -34 -10 -38 -11 -7 -63 5 -56 12 3
3 -1 18 -9 32 -7 15 -16 45 -18 67 -7 61 -15 76 -38 63 -28 -15 -41 -2 -34 33
5 19 3 28 -3 24 -6 -4 -8 18 -6 59 2 36 6 94 8 130 2 36 0 67 -4 70 -4 3 -6
18 -5 35 3 31 -12 51 -24 32 -8 -13 -7 -66 4 -262 10 -188 10 -190 -25 -222
-16 -16 -31 -28 -33 -28 -2 0 -10 33 -17 73 -35 200 -123 665 -145 762 -8 39
-18 82 -21 96 -6 24 -4 26 36 25 23 -1 44 2 47 7 2 4 9 5 14 2 5 -4 9 3 9 13
0 33 24 42 116 47 96 5 121 19 109 60 -21 67 -6 91 49 82 29 -5 33 -3 32 16
-1 12 -7 21 -12 20 -11 -2 -12 0 -17 57 -2 31 -6 35 -29 35 -56 0 -55 -9 -62
495 -4 256 -9 519 -11 585 -3 66 -7 163 -9 215 -5 130 -9 140 -49 140 -18 0
-19 -22 -12 -627 4 -346 8 -685 10 -756 2 -114 1 -130 -17 -152 -11 -14 -24
-23 -29 -19 -12 7 -49 -5 -49 -16 0 -5 10 -9 23 -8 41 2 58 -2 53 -11 -4 -5
-1 -11 5 -13 18 -6 1 -45 -21 -51 -11 -3 -29 -3 -40 0 -33 9 -43 70 -17 102
10 12 9 12 -11 2 -13 -7 -20 -17 -15 -24 4 -8 1 -7 -9 1 -15 12 -15 15 3 33
22 22 18 59 -13 98 -10 13 -18 33 -18 45 0 12 -6 31 -14 41 -13 18 -15 16 -40
-23 -27 -43 -32 -62 -17 -62 4 0 7 -18 5 -39 -2 -28 2 -41 12 -45 9 -3 12 -11
8 -17 -5 -8 1 -10 20 -7 21 4 26 2 22 -9 -3 -8 -6 -18 -6 -21 0 -4 -5 0 -10 8
-8 12 -10 12 -10 1 0 -11 -3 -11 -17 0 -9 8 -14 9 -10 3 4 -7 0 -14 -8 -18
-10 -4 -13 -14 -9 -34 6 -29 -18 -63 -30 -43 -8 12 -29 112 -28 131 2 31 9 60
15 66 4 4 2 13 -5 21 -6 7 -8 16 -5 19 10 10 -22 36 -37 31 -17 -7 -69 117
-66 158 6 81 4 667 -4 1145 l-8 535 -31 27 c-27 23 -30 30 -21 45 8 14 8 28 0
53 -12 39 -27 45 -33 15 -2 -11 -4 -388 -3 -837 0 -450 -1 -818 -4 -818 -2 0
-21 24 -42 53 -20 28 -49 68 -63 87 -24 33 -24 34 -2 15 l23 -20 -7 385 c-3
212 -6 492 -6 622 0 209 -2 239 -16 254 -20 19 -26 140 -8 163 5 8 10 43 10
78 0 65 -9 76 -45 53 -22 -14 -27 -142 -28 -814 -1 -324 -3 -591 -5 -593 -3
-2 -17 -5 -33 -6 -29 -2 -29 -2 -32 62 -1 35 -7 71 -12 81 -6 10 -10 31 -11
47 0 27 -1 27 -11 6 -6 -12 -24 -27 -40 -34 -26 -11 -32 -10 -50 9 -17 16 -24
44 -35 124 -7 57 -11 108 -9 115 5 11 -46 29 -70 25 -7 -1 -25 13 -41 31 l-29
33 -17 -22 c-9 -13 -17 -27 -17 -32 0 -12 -56 -33 -64 -25 -11 11 -23 -43 -29
-128 -4 -48 -10 -94 -13 -104 -9 -22 19 -45 53 -45 13 0 23 -5 23 -10 0 -6 12
-10 28 -10 15 0 49 -3 77 -7 40 -7 52 -13 63 -35 9 -19 29 -33 70 -48 106 -40
203 -82 198 -87 -2 -2 -35 9 -73 25 -37 17 -93 38 -123 48 -30 9 -59 20 -65
24 -5 4 -53 24 -105 45 -112 44 -311 133 -392 175 -31 17 -65 30 -76 30 -11 0
-30 9 -43 21 l-24 21 25 -16 c55 -36 56 -33 45 238 -2 71 -1 136 4 144 5 9 5
22 0 31 -5 9 -13 28 -18 43 -9 24 -14 26 -53 22 -24 -2 -74 -6 -112 -9 -38 -3
-72 -7 -75 -11 -10 -10 -10 -184 0 -263 10 -74 19 -97 64 -160 38 -52 34 -101
-12 -152 -76 -84 -269 -194 -381 -218 -139 -29 -330 -4 -442 58 -126 70 -138
97 -145 342 -5 183 -13 325 -20 347 -2 6 0 12 5 12 6 0 10 -4 10 -9 0 -4 17
-28 39 -52 21 -24 46 -59 55 -77 10 -19 20 -31 23 -28 6 6 34 -58 35 -82 1 -7
6 -11 12 -9 6 2 16 -3 23 -12 10 -12 12 -13 13 -2 0 11 3 11 15 1 9 -7 15 -8
15 -2 0 5 9 8 20 5 11 -3 20 -9 20 -14 0 -4 9 -13 21 -19 16 -9 26 -8 46 6 15
9 51 18 81 20 30 1 58 6 61 11 3 4 32 8 63 9 45 1 64 7 91 27 19 14 37 24 40
21 3 -3 12 3 19 15 7 12 18 21 25 21 7 0 13 5 13 10 0 6 5 10 11 10 5 0 8 -4
4 -9 -3 -5 0 -13 6 -17 9 -5 10 -1 7 14 -4 16 10 44 52 102 56 78 76 121 65
140 -3 5 -12 7 -20 4 -8 -4 -13 -10 -10 -14 3 -4 -8 -7 -25 -6 -20 1 -26 -1
-20 -9 12 -14 -84 -64 -121 -63 -21 0 -25 5 -23 23 2 19 -2 23 -19 19 -12 -2
-24 -9 -26 -16 -7 -22 -63 -66 -80 -63 -9 1 -24 -2 -34 -7 -18 -9 -42 -16 -82
-22 -11 -2 -31 -8 -45 -13 -33 -12 -120 -7 -134 8 -8 9 -8 10 3 4 10 -6 12 -4
7 4 -5 7 -14 10 -22 7 -8 -3 -14 -1 -14 5 0 5 -10 7 -22 4 -27 -6 -48 9 -73
53 -24 40 -35 41 -29 2 3 -16 2 -30 -1 -30 -16 0 -45 22 -40 31 6 9 -8 12 -48
12 -12 0 -16 5 -13 14 3 8 1 11 -4 8 -11 -7 -64 99 -85 169 -9 29 -18 40 -35
43 -36 5 -54 27 -91 106 -24 53 -34 88 -35 131 -2 54 -4 61 -29 74 -33 17 -70
2 -81 -32 -8 -23 -81 -100 -104 -108 -8 -3 -25 -1 -38 3 -17 7 -27 4 -42 -11
-39 -39 -79 -25 -125 45 -31 46 -35 60 -35 116 0 88 15 133 53 165 18 14 26
23 18 18 -10 -5 -12 -3 -6 6 6 10 11 10 20 -4 16 -21 44 -11 42 15 -1 10 -4
19 -8 19 -4 0 -9 9 -12 19 -3 15 -12 19 -33 16 -25 -2 -26 -1 -11 10 19 14 23
35 6 35 -5 0 -7 -4 -4 -10 3 -5 2 -10 -4 -10 -5 0 -14 -15 -21 -34 -15 -45
-59 -65 -94 -43 -18 12 -24 27 -28 68 -4 42 -11 57 -29 69 -13 8 -33 25 -45
38 -13 14 -33 22 -53 22 -82 0 -97 102 -19 129 27 10 34 8 53 -9 27 -26 35
-25 35 1 0 28 -30 51 -48 37 -9 -8 -24 -8 -51 1 -50 14 -48 15 -55 -13z m468
-1157 c14 -11 26 -30 26 -41 0 -11 8 -33 17 -49 17 -29 17 -31 -4 -70 -16 -30
-18 -39 -8 -35 19 7 20 -18 0 -34 -17 -14 -36 -5 -28 15 3 10 -1 15 -13 15
-11 0 -34 13 -52 29 -21 19 -39 27 -52 24 -14 -4 -20 0 -20 11 0 9 -4 16 -10
16 -5 0 -10 24 -10 54 0 45 4 58 22 70 32 23 100 20 132 -5z m110 -292 c14
-10 19 -31 21 -90 l4 -77 -37 -17 c-60 -26 -10 -29 60 -2 40 15 87 45 137 87
69 59 78 63 110 58 20 -3 41 -7 48 -8 24 -3 -13 -53 -42 -56 -15 -1 -41 -12
-58 -24 -35 -26 -43 -28 -287 -99 -96 -28 -202 -63 -235 -78 -67 -31 -204
-138 -253 -197 -24 -30 -30 -33 -24 -15 5 13 4 40 -1 61 -6 20 -7 44 -4 53 10
26 45 20 60 -9 l13 -26 70 56 c72 58 154 102 245 132 94 30 125 43 105 43 -23
1 -77 46 -68 57 4 5 0 3 -8 -3 -21 -19 -25 -16 -27 18 -2 28 -1 29 14 17 12
-9 15 -9 9 0 -4 6 -3 12 3 12 5 0 12 18 16 39 7 44 20 58 62 71 40 12 47 12
67 -3z m-376 -243 c3 -63 -11 -91 -36 -75 -32 20 -18 145 16 139 13 -3 18 -16
20 -64z m216 32 c-3 -9 -10 -13 -16 -10 -5 3 -4 12 3 20 15 18 22 13 13 -10z
m-636 -273 c3 -59 5 -64 43 -93 42 -34 43 -52 1 -50 -42 3 -49 1 -67 -17 -16
-16 -18 -15 -29 3 -6 10 -12 24 -12 29 -1 6 -2 13 -3 18 -1 4 -2 39 -3 77 0
77 12 103 46 98 18 -3 21 -11 24 -65z m185 -138 c-3 -9 -8 -14 -10 -11 -3 3
-2 9 2 15 9 16 15 13 8 -4z m-333 1 c0 -3 -4 -8 -10 -11 -5 -3 -10 -1 -10 4 0
6 5 11 10 11 6 0 10 -2 10 -4z m258 -161 c-6 -14 -13 -23 -15 -21 -5 5 15 46
22 46 3 0 -1 -11 -7 -25z m-275 -119 c6 -16 -2 -28 -14 -20 -12 7 -11 34 0 34
5 0 11 -6 14 -14z m3797 -181 c-6 -8 -8 -20 -4 -27 5 -10 4 -10 -6 -1 -11 10
-11 15 0 28 7 8 15 15 17 15 3 0 0 -7 -7 -15z m65 -245 c3 -6 3 -20 0 -31 -6
-17 -9 -19 -16 -8 -12 19 -11 49 0 49 6 0 13 -5 16 -10z m92 -24 c0 -8 -6 -12
-15 -9 -11 5 -11 7 0 14 7 5 13 9 14 9 0 0 1 -6 1 -14z m200 -893 c-4 -3 -2
-12 5 -20 6 -7 8 -16 4 -20 -3 -3 -6 -1 -6 5 0 7 -6 12 -13 12 -8 0 -14 7 -14
15 0 8 7 15 15 15 9 0 12 -3 9 -7z m-41 -163 c8 0 14 -4 14 -9 0 -18 -35 -4
-37 15 -2 10 0 13 3 7 3 -7 12 -13 20 -13z"/>
<path d="M7010 4174 c-6 -14 -10 -34 -10 -45 0 -22 27 -79 37 -79 3 0 4 3 1 6
-4 3 -1 20 6 37 7 18 12 42 10 55 -1 12 -2 29 -3 37 -2 24 -31 17 -41 -11z"/>
<path d="M5124 4169 c-3 -6 -15 -9 -25 -6 -10 3 -19 2 -21 -2 -2 -3 -16 -13
-33 -21 -29 -15 -43 -54 -23 -66 4 -3 6 -9 3 -14 -3 -5 -8 -22 -10 -38 -3 -26
-1 -28 23 -24 20 4 24 2 19 -11 -4 -10 1 -18 13 -22 16 -5 17 -9 7 -19 -6 -8
-18 -11 -26 -8 -9 4 -12 1 -7 -7 4 -7 13 -10 19 -8 7 2 20 0 29 -5 24 -12 123
-19 112 -8 -5 5 -22 11 -38 14 -16 3 -35 11 -42 18 -11 11 1 13 64 11 42 -1
93 -5 114 -9 20 -3 44 -1 55 5 17 10 17 10 0 11 -10 0 -16 4 -13 8 9 14 -96
60 -166 73 -38 7 -68 16 -68 20 0 16 59 48 91 50 37 2 133 -36 125 -49 -3 -5
0 -9 7 -9 7 0 26 -3 42 -7 17 -3 24 -3 17 0 -6 3 -10 10 -6 15 3 5 -2 12 -10
15 -9 3 -13 10 -11 15 3 4 -14 20 -37 35 -24 15 -46 31 -49 36 -8 13 -147 19
-155 7z m12 -184 c-3 -9 -11 -13 -16 -10 -8 5 -7 11 1 21 14 18 24 11 15 -11z"/>
<path d="M4582 4135 c-46 -9 -70 -19 -88 -38 -26 -28 -31 -61 -12 -73 8 -5 9
-2 4 12 -4 10 -4 15 0 12 3 -4 23 -1 43 7 63 24 127 28 160 10 17 -8 31 -17
31 -19 0 -3 -36 -16 -80 -31 -56 -19 -87 -35 -105 -57 -30 -36 -25 -50 18 -42
18 3 53 6 79 8 26 1 53 7 60 14 7 7 19 12 28 11 10 0 11 -2 2 -6 -6 -2 -10 -8
-7 -13 10 -16 -32 -39 -80 -44 -64 -6 -66 -7 -30 -15 28 -6 88 -1 144 13 13 3
32 13 43 23 19 17 19 17 -4 26 -22 9 -22 9 -3 17 13 5 24 2 31 -8 10 -14 12
-13 18 5 15 48 14 63 -9 87 -13 14 -22 26 -19 26 2 0 -2 13 -10 29 -15 28 -39
38 -136 55 -8 1 -43 -3 -78 -9z"/>
<path d="M1838 4033 c-6 -26 2 -54 13 -48 12 8 12 65 0 65 -5 0 -11 -8 -13
-17z"/>
<path d="M6784 3970 c-6 -27 -7 -50 -2 -50 4 0 8 -9 8 -20 0 -11 5 -20 11 -20
5 0 7 5 4 10 -4 6 2 26 13 45 l21 34 -23 26 -22 25 -10 -50z"/>
<path d="M4500 3995 c0 -2 7 -8 15 -15 12 -10 15 -10 15 2 0 8 -7 15 -15 15
-8 0 -15 -1 -15 -2z"/>
<path d="M9910 3985 c-78 -15 -207 -35 -275 -41 -27 -2 -56 -7 -64 -9 -11 -4
-13 -58 -9 -311 3 -208 1 -309 -6 -319 -6 -8 -23 -18 -37 -24 -24 -9 -27 -15
-33 -90 -4 -44 -5 -85 -2 -90 3 -5 6 -200 5 -432 0 -233 -1 -433 0 -444 13
-372 12 -437 -7 -434 -4 1 -9 1 -12 -1 -3 -1 -110 -3 -237 -4 -128 -1 -236 -5
-239 -9 -12 -11 6 -58 19 -50 18 11 25 12 243 17 l201 5 22 -23 c23 -24 23
-24 3 -35 -13 -7 -106 -11 -246 -12 -201 -1 -266 -8 -224 -24 7 -3 83 -7 168
-9 85 -2 157 -5 160 -6 3 -1 8 -2 13 -1 4 0 7 -3 7 -9 0 -5 22 -9 50 -8 28 2
50 7 50 12 0 6 5 5 12 -2 16 -16 31 -15 22 1 -6 9 -4 9 8 -1 10 -8 34 -11 67
-8 28 3 51 0 51 -5 0 -5 6 -9 14 -9 8 0 22 -7 30 -16 14 -14 16 -10 14 42 -2
32 -8 58 -14 61 -7 2 -17 17 -24 33 -17 40 10 80 54 80 57 0 60 -7 58 -132 -1
-62 -4 -133 -7 -158 -2 -25 -4 -51 -4 -57 -1 -17 -40 -11 -52 8 -5 8 -9 34
-10 59 -1 30 -3 36 -6 18 -3 -21 -11 -29 -31 -34 -15 -3 -34 -9 -44 -14 -9 -5
-29 -5 -48 0 -18 5 -88 9 -157 9 -133 0 -161 8 -143 41 13 24 13 43 0 35 -6
-3 -13 0 -16 8 -8 23 -37 13 -52 -17 -13 -25 -23 -32 -77 -52 -25 -8 -45 -10
-230 -18 -158 -7 -185 -11 -185 -27 0 -6 6 -7 13 -3 6 4 4 -2 -7 -14 -11 -13
-16 -30 -13 -42 3 -11 1 -18 -4 -14 -5 3 -9 -2 -9 -11 0 -9 4 -14 9 -11 5 3 9
-15 9 -42 0 -26 3 -57 6 -70 3 -13 1 -20 -5 -17 -5 4 -9 -1 -9 -10 0 -9 -6
-15 -12 -13 -9 3 -14 35 -16 101 l-3 96 -35 -3 c-28 -3 -38 -10 -53 -39 -17
-33 -17 -36 -1 -40 20 -5 32 -53 16 -66 -6 -4 -24 -13 -41 -18 l-30 -10 0
-104 c0 -126 15 -490 20 -499 8 -13 16 -436 8 -447 -8 -11 -47 -17 -91 -15
-32 3 -38 28 -47 179 -9 182 -6 171 -44 165 -4 -1 -5 -19 -1 -40 4 -21 6 -46
4 -55 -1 -9 2 -19 7 -23 5 -3 7 -10 3 -15 -3 -5 -7 -37 -10 -72 -11 -157 -13
-172 -29 -183 -22 -16 -44 -7 -50 20 -3 11 -7 115 -9 231 -5 219 -11 275 -30
275 -6 0 -4 5 4 10 9 5 10 10 3 10 -10 0 -9 43 2 77 2 7 -3 17 -12 22 -9 5
-18 15 -19 22 -1 8 -5 30 -9 49 -4 19 -7 89 -6 154 0 102 3 124 19 145 24 33
56 38 83 12 20 -18 22 -33 26 -143 5 -141 10 -165 25 -128 6 14 13 32 15 40 6
25 2 173 -5 184 -4 6 -7 34 -8 61 -1 42 -5 52 -26 64 -22 13 -28 12 -57 -10
l-32 -23 -35 19 c-29 15 -34 23 -28 39 8 25 9 198 1 220 -5 13 -36 15 -224 12
-120 -1 -232 1 -250 5 -42 9 -44 2 -41 -149 1 -66 0 -124 -4 -127 -12 -12 -68
6 -78 24 -15 28 -23 81 -21 141 1 30 1 74 1 97 0 53 17 64 91 56 30 -3 56 -7
58 -9 10 -9 41 20 41 39 0 41 21 57 82 61 31 2 62 7 68 11 16 10 -16 44 -38
40 -9 -1 -29 2 -43 7 -21 7 -25 14 -21 38 5 34 -14 56 -43 53 -75 -8 -97 -12
-102 -17 -4 -3 -6 -24 -5 -46 2 -36 -1 -42 -25 -51 -15 -6 -56 -10 -90 -10
l-63 0 -2 -32 c-2 -35 -4 -81 -6 -169 -2 -55 -3 -58 -27 -58 -14 0 -28 7 -31
15 -4 10 -20 15 -53 15 -51 0 -77 -12 -66 -30 10 -16 94 -52 123 -52 12 0 27
-9 32 -19 13 -24 13 -221 0 -255 -7 -16 -8 -55 -4 -96 7 -74 20 -85 15 -14 -2
36 2 48 23 69 25 25 29 44 30 145 0 15 6 22 21 23 11 0 33 2 49 3 19 1 40 -7
57 -22 l29 -23 2 -172 c3 -171 3 -171 27 -184 14 -6 29 -9 35 -6 14 9 55 10
68 2 7 -4 11 -87 13 -242 1 -129 5 -239 8 -244 14 -22 -10 -34 -51 -25 -22 5
-44 6 -49 2 -4 -5 -25 -13 -45 -18 -37 -10 -38 -10 -32 13 3 12 2 25 -3 28 -5
3 -7 29 -5 59 1 29 3 58 3 63 1 19 -13 110 -17 114 -3 3 -4 -58 -3 -135 0
-111 4 -142 16 -156 9 -10 21 -18 26 -18 5 0 16 -8 24 -17 8 -11 11 -12 7 -3
-7 13 -6 13 10 1 9 -8 14 -21 11 -29 -4 -12 -3 -12 9 -3 12 10 14 9 9 -7 -4
-15 0 -20 14 -19 10 1 17 -3 16 -10 -2 -7 4 -10 12 -7 8 4 12 11 8 17 -3 6 -1
7 6 3 6 -4 9 -12 6 -17 -9 -14 19 -11 34 4 11 9 14 9 18 0 3 -7 13 -13 22 -13
10 0 21 -3 25 -8 4 -4 20 -7 34 -8 15 0 26 -5 25 -10 -1 -5 10 -9 23 -9 13 0
24 5 24 10 0 6 5 2 11 -7 5 -10 17 -18 25 -18 9 0 29 -9 45 -21 16 -11 29 -17
29 -12 0 4 11 8 25 8 14 0 25 -3 25 -7 0 -5 10 -8 23 -8 12 0 40 -7 62 -14 22
-8 56 -16 75 -19 19 -3 47 -10 62 -15 16 -7 120 -11 256 -12 l229 0 2 52 c7
214 7 547 0 566 -5 12 -21 34 -36 48 -16 14 -21 23 -13 19 8 -4 4 3 -10 15
-14 12 -20 19 -13 16 6 -4 14 -2 18 4 4 6 10 8 14 5 5 -2 19 6 33 18 19 18 23
30 20 57 -2 19 -5 37 -7 38 -2 2 5 20 16 39 11 20 18 38 14 41 -3 3 -5 2 -5
-1 0 -4 -16 10 -35 30 -32 34 -34 38 -18 55 9 10 26 18 39 18 33 0 36 12 14
56 -11 21 -20 43 -20 50 0 6 -7 17 -15 24 -30 25 -76 160 -63 184 18 32 75 45
196 46 64 1 140 3 167 5 28 2 81 5 118 6 38 2 71 7 73 11 3 5 10 6 15 3 5 -4
9 3 9 15 0 27 56 53 82 39 10 -5 18 -7 18 -4 0 3 9 1 20 -5 11 -6 18 -16 14
-21 -4 -7 1 -7 14 0 16 9 24 7 38 -6 16 -17 44 -24 91 -23 12 0 25 -5 28 -11
5 -7 11 -7 19 0 9 7 17 1 31 -22 24 -42 47 -58 61 -46 17 14 134 4 149 -12 7
-8 18 -52 24 -98 12 -90 14 -97 30 -86 7 4 11 56 11 141 l0 134 -25 0 c-18 0
-25 5 -25 19 0 10 11 26 25 35 34 22 34 63 1 68 -23 3 -23 5 -12 38 11 30 9
42 -7 85 -10 28 -18 52 -16 55 24 51 28 72 20 121 -10 69 -5 247 9 324 17 86
20 136 26 358 3 110 2 197 -3 197 -5 0 -14 -5 -20 -11 -11 -11 -34 17 -47 59
-4 12 -11 22 -15 22 -4 0 -7 21 -6 46 0 25 -2 47 -5 49 -3 2 -7 18 -8 35 -3
34 14 64 29 54 5 -3 9 -1 9 4 0 23 33 5 48 -27 17 -35 17 -33 20 172 2 179 0
210 -14 233 -13 19 -14 24 -3 22 12 -3 14 50 17 320 2 254 0 322 -10 321 -7 0
-42 -6 -78 -14z m-35 -292 c15 -14 17 -35 13 -151 -3 -126 -5 -135 -27 -153
-24 -20 -87 -27 -76 -9 3 6 2 10 -4 10 -5 0 -9 44 -8 108 1 74 -3 117 -13 140
-14 32 -14 35 9 53 29 23 84 25 106 2z m-189 -31 c12 -8 17 -252 5 -269 -9
-15 -47 -33 -69 -33 -37 0 -45 24 -43 141 1 95 4 115 22 140 20 29 59 39 85
21z m-1909 -2398 c-3 -3 -12 -4 -19 -1 -8 3 -5 6 6 6 11 1 17 -2 13 -5z m894
-161 c3 -45 -4 -89 -14 -95 -7 -4 -13 -16 -13 -27 -1 -11 3 -18 7 -15 5 3 9
13 10 22 0 14 2 13 8 -3 5 -12 4 -23 -3 -27 -6 -4 -7 -8 -3 -8 4 0 3 -9 -3
-20 -8 -15 -8 -20 1 -20 8 0 8 -4 -1 -15 -18 -21 -16 -129 8 -465 10 -143 4
-250 -14 -257 -8 -3 -21 0 -27 7 -9 10 -9 11 3 5 13 -8 13 -6 2 7 -7 9 -14 38
-15 65 -1 26 -8 56 -16 65 -19 22 -23 48 -8 48 8 0 9 3 2 8 -7 4 -11 100 -11
272 0 146 -3 297 -7 336 -6 61 -5 74 12 93 18 20 20 20 35 5 19 -19 26 -15 29
15 2 25 17 28 18 4z m-530 -304 c12 -6 15 -25 14 -89 0 -45 3 -84 7 -87 5 -2
5 -10 1 -16 -4 -7 -8 -23 -9 -36 -2 -48 -87 -84 -101 -43 -3 9 -14 36 -25 59
-10 23 -20 57 -21 76 -1 19 -6 33 -11 29 -5 -3 -7 2 -3 11 5 12 1 17 -12 17
-12 0 -20 -9 -23 -24 -4 -19 -1 -24 14 -21 10 2 16 0 13 -5 -3 -4 -13 -7 -23
-5 -20 3 -44 -14 -36 -26 3 -5 1 -9 -5 -9 -6 0 -15 10 -22 21 -9 17 -8 20 2
14 8 -6 11 -4 7 7 -4 8 -2 21 2 29 5 8 4 19 -2 26 -7 9 -7 17 2 28 6 8 9 18 6
23 -3 4 8 8 25 8 20 0 28 -4 25 -12 -3 -8 0 -16 6 -20 6 -4 8 -3 5 2 -17 28
52 63 107 56 23 -2 48 -8 57 -13z m374 -770 c-4 -5 -1 -9 6 -9 7 0 9 -3 6 -6
-9 -9 -38 16 -31 27 3 5 10 7 15 3 5 -3 7 -10 4 -15z"/>
<path d="M8642 1040 c0 -14 2 -19 5 -12 2 6 2 18 0 25 -3 6 -5 1 -5 -13z"/>
<path d="M4000 3981 c0 -10 19 -25 25 -20 1 2 -3 10 -11 17 -8 7 -14 8 -14 3z"/>
<path d="M9225 3894 c-38 -7 -87 -13 -107 -13 -20 -1 -40 -6 -44 -12 -8 -13
-14 -316 -7 -343 5 -17 12 -18 99 -12 94 7 135 13 167 22 21 6 24 36 14 122
-2 17 -1 32 4 32 8 0 3 155 -6 198 -6 25 -17 26 -120 6z"/>
<path d="M5725 3882 c-11 -2 -24 -9 -30 -14 -7 -7 -5 -9 5 -6 8 3 22 -6 31
-19 l16 -25 7 28 c8 31 -1 42 -29 36z"/>
<path d="M5635 3790 c-7 -22 11 -53 26 -44 14 8 11 40 -5 53 -11 10 -16 8 -21
-9z"/>
<path d="M4004 3744 c3 -8 6 -18 6 -20 0 -2 5 -4 10 -4 16 0 11 27 -6 34 -12
5 -15 2 -10 -10z"/>
<path d="M4365 3709 c-4 -6 -5 -12 -2 -15 2 -3 7 2 10 11 7 17 1 20 -8 4z"/>
<path d="M4799 3691 c-8 -12 -19 -16 -33 -13 -18 5 -19 3 -9 -10 17 -20 118
-70 149 -74 29 -3 154 59 167 82 7 13 6 13 -12 3 -16 -11 -23 -10 -38 3 -27
23 -79 32 -86 15 -7 -18 -54 -19 -89 -1 -34 18 -36 18 -49 -5z m202 -31 c5 0
9 -4 9 -10 0 -12 -47 -13 -54 -1 -8 12 6 22 22 16 7 -3 18 -5 23 -5z"/>
<path d="M4371 3654 c0 -11 3 -14 6 -6 3 7 2 16 -1 19 -3 4 -6 -2 -5 -13z"/>
<path d="M4643 3630 c-33 -29 -53 -60 -53 -80 0 -7 14 3 31 21 17 19 40 44 51
55 30 33 7 36 -29 4z"/>
<path d="M5190 3647 c0 -8 7 -17 15 -20 8 -4 28 -25 45 -48 32 -44 43 -33 12
13 -25 38 -72 74 -72 55z"/>
<path d="M7015 3582 c3 -31 7 -66 9 -77 3 -11 5 -23 5 -26 1 -4 10 -9 20 -12
25 -6 34 15 21 49 -6 14 -10 37 -10 52 -1 31 -19 66 -37 69 -9 2 -11 -12 -8
-55z"/>
<path d="M7268 3633 c-22 -5 -24 -22 -20 -175 3 -104 6 -128 18 -128 8 0 14 6
14 14 0 8 7 17 15 20 13 5 15 27 14 135 -1 132 -4 142 -41 134z"/>
<path d="M5556 3583 c-9 -23 -9 -23 36 -23 l42 0 -24 17 c-32 23 -47 24 -54 6z"/>
<path d="M4410 3565 c-10 -12 -10 -15 4 -15 9 0 16 7 16 15 0 8 -2 15 -4 15
-2 0 -9 -7 -16 -15z"/>
<path d="M6332 3558 c-13 -13 -16 -74 -4 -82 4 -2 9 -33 10 -68 2 -34 6 -65 8
-68 3 -3 4 28 3 68 -1 40 1 75 4 79 10 9 9 83 -1 83 -4 0 -13 -5 -20 -12z"/>
<path d="M4770 3538 c-57 -10 -130 -37 -130 -49 0 -5 12 -12 28 -15 15 -4 33
-16 40 -26 20 -27 69 -51 75 -35 2 8 40 12 129 13 70 1 131 4 136 8 6 3 12 1
14 -6 3 -7 9 -8 19 -3 8 5 22 11 32 12 11 2 28 10 40 18 12 8 30 15 40 15 12
0 17 6 15 17 -5 27 -82 44 -193 44 -56 0 -123 3 -150 7 -28 4 -70 4 -95 0z
m307 -56 c26 -9 2 -20 -42 -18 -25 1 -45 -2 -45 -6 0 -4 -21 -5 -47 -3 -35 4
-42 3 -28 -4 17 -8 15 -9 -12 -8 -17 1 -29 5 -26 10 4 7 -34 11 -69 8 -10 -1
-18 4 -18 13 0 12 22 14 138 14 75 -1 143 -3 149 -6z"/>
<path d="M6477 3524 c-6 -6 1 -55 9 -63 2 -2 4 12 4 32 0 37 -2 42 -13 31z"/>
<path d="M5525 3506 c-3 -9 -7 -23 -10 -31 -7 -23 13 -28 24 -6 7 13 18 18 33
15 13 -2 16 -1 8 2 -8 4 -23 13 -32 22 -16 13 -18 13 -23 -2z"/>
<path d="M6210 3450 c0 -16 5 -30 10 -30 6 0 10 3 10 8 0 4 3 17 6 30 5 16 2
22 -10 22 -11 0 -16 -9 -16 -30z"/>
<path d="M6480 3408 c-5 -91 -5 -108 1 -108 11 0 14 42 8 100 l-6 55 -3 -47z"/>
<path d="M0 3411 c0 -17 4 -32 9 -36 12 -7 23 28 15 49 -10 26 -24 18 -24 -13z"/>
<path d="M5700 3420 c0 -5 5 -10 11 -10 5 0 7 5 4 10 -3 6 -8 10 -11 10 -2 0
-4 -4 -4 -10z"/>
<path d="M60 3378 c0 -40 0 -41 20 -23 24 22 26 51 4 59 -24 9 -24 9 -24 -36z"/>
<path d="M4561 3403 c8 -10 20 -22 27 -26 7 -5 9 -13 6 -19 -5 -7 -2 -8 5 -3
9 5 5 15 -15 36 -31 32 -44 39 -23 12z"/>
<path d="M7020 3365 c0 -8 2 -15 4 -15 2 0 6 7 10 15 3 8 1 15 -4 15 -6 0 -10
-7 -10 -15z"/>
<path d="M5430 3351 c0 -6 4 -13 10 -16 6 -3 7 1 4 9 -7 18 -14 21 -14 7z"/>
<path d="M6342 3305 c0 -16 2 -22 5 -12 2 9 2 23 0 30 -3 6 -5 -1 -5 -18z"/>
<path d="M4610 3296 c0 -8 5 -18 10 -21 6 -3 10 3 10 14 0 12 -4 21 -10 21 -5
0 -10 -6 -10 -14z"/>
<path d="M6476 3263 c2 -56 4 -64 15 -58 9 6 9 22 -1 83 0 1 -4 2 -8 2 -4 0
-7 -12 -6 -27z"/>
<path d="M7022 3238 c3 -26 2 -45 -3 -43 -4 3 -4 -7 0 -22 4 -16 6 -35 4 -43
-4 -13 -3 -13 5 -1 6 8 8 23 6 34 -2 11 1 26 6 33 7 7 7 20 1 35 -5 13 -9 28
-9 32 0 5 -4 12 -7 15 -4 4 -5 -14 -3 -40z"/>
<path d="M6337 3228 c-2 -7 -1 -22 3 -33 6 -16 8 -13 7 13 0 35 -2 39 -10 20z"/>
<path d="M1037 3224 c-5 -5 6 -44 24 -89 7 -18 8 -18 8 4 1 14 9 33 18 43 11
12 13 22 7 28 -12 12 -50 21 -57 14z"/>
<path d="M5872 3170 c0 -14 2 -19 5 -12 2 6 2 18 0 25 -3 6 -5 1 -5 -13z"/>
<path d="M6343 3148 c3 -10 2 -20 -3 -23 -9 -6 -8 -24 3 -42 5 -7 5 -13 0 -13
-4 0 -8 -34 -8 -75 0 -46 4 -75 11 -75 13 0 13 225 0 237 -5 5 -7 1 -3 -9z"/>
<path d="M6478 3133 c-3 -7 -2 -95 1 -141 1 -7 6 -10 11 -7 13 8 13 155 1 155
-6 0 -11 -3 -13 -7z"/>
<path d="M3163 3106 c0 -8 6 -12 14 -9 7 3 10 9 7 14 -8 14 -21 11 -21 -5z"/>
<path d="M5870 3104 c0 -8 5 -12 10 -9 6 4 8 11 5 16 -9 14 -15 11 -15 -7z"/>
<path d="M7022 3070 c0 -14 2 -19 5 -12 2 6 2 18 0 25 -3 6 -5 1 -5 -13z"/>
<path d="M5867 3066 c-3 -8 0 -19 7 -25 9 -8 12 -4 12 14 0 27 -11 33 -19 11z"/>
<path d="M1851 3054 c0 -11 3 -14 6 -6 3 7 2 16 -1 19 -3 4 -6 -2 -5 -13z"/>
<path d="M5875 3010 c-6 -8 -11 -77 -12 -152 -1 -109 1 -138 11 -138 18 0 23
32 24 138 2 106 -9 174 -23 152z"/>
<path d="M5976 2962 c-2 -4 -1 -14 4 -22 7 -11 9 -9 7 8 -1 24 -3 26 -11 14z"/>
<path d="M2546 2923 c-14 -7 -30 -22 -36 -33 -16 -30 -11 -93 10 -125 11 -16
20 -37 20 -45 0 -22 -68 -90 -91 -90 -21 0 -103 -79 -124 -120 -12 -25 -71
-201 -82 -250 -8 -32 -8 -67 -1 -105 9 -48 57 -124 88 -140 27 -14 40 -46 40
-104 0 -14 7 -39 15 -54 9 -18 15 -64 17 -125 3 -83 0 -104 -19 -144 l-22 -47
19 -55 c10 -30 19 -79 20 -108 0 -29 2 -73 3 -98 4 -61 -2 -83 -21 -75 -12 4
-11 1 3 -15 18 -20 18 -21 0 -14 -14 6 -17 4 -13 -8 4 -10 1 -15 -10 -14 -9 0
-16 -5 -14 -12 1 -6 -4 -11 -10 -10 -7 2 -12 -2 -11 -9 1 -6 -4 -17 -13 -23
-12 -11 -13 -10 -8 3 4 12 1 14 -15 10 -19 -5 -45 -56 -34 -67 6 -6 -13 -10
-30 -7 -5 1 -6 -3 -2 -9 4 -7 13 -7 26 1 24 12 41 2 19 -11 -10 -6 -3 -8 20
-4 26 4 40 1 49 -10 14 -16 12 -48 -3 -46 -13 2 -28 -28 -21 -40 3 -6 -1 -11
-9 -11 -16 -1 -28 -4 -43 -9 -12 -4 -27 -7 -40 -8 -7 -1 -13 -12 -13 -24 0
-19 -2 -20 -10 -8 -9 13 -10 13 -10 0 0 -16 -36 -20 -58 -6 -11 6 -15 2 -14
-14 0 -3 -17 -5 -39 -5 -21 0 -39 3 -39 7 0 4 -12 0 -27 -7 -16 -8 -35 -12
-45 -9 -9 2 -20 -1 -24 -7 -4 -8 -3 -9 4 -5 7 4 12 2 12 -3 0 -6 -6 -11 -12
-11 -7 0 -40 -14 -72 -30 -32 -17 -65 -30 -72 -30 -7 0 -34 -11 -60 -25 -25
-14 -50 -22 -55 -19 -5 3 -9 -3 -9 -13 0 -15 -2 -16 -10 -3 -6 10 -10 11 -10
3 0 -7 -7 -13 -15 -13 -8 0 -15 -4 -15 -10 0 -5 -9 -10 -20 -10 -11 0 -20 -4
-20 -9 0 -5 -8 -8 -17 -7 -9 2 -28 -3 -42 -11 -15 -7 -34 -13 -44 -13 -10 0
-16 -4 -12 -9 3 -5 1 -12 -4 -15 -5 -4 -12 -2 -16 4 -4 6 -13 5 -25 -2 -10 -7
-16 -16 -13 -22 4 -5 1 -6 -6 -2 -7 5 -18 1 -25 -10 -10 -12 -28 -18 -64 -19
-28 -1 -58 -8 -68 -16 -10 -7 -15 -9 -11 -2 4 6 2 15 -4 19 -8 4 -9 3 -5 -4 4
-7 2 -12 -4 -12 -6 0 -8 -4 -5 -10 3 -6 -3 -10 -14 -10 -12 0 -21 -4 -21 -9 0
-11 -120 -75 -127 -67 -4 3 -12 1 -20 -5 -7 -6 -13 -8 -13 -3 0 5 -5 2 -10 -6
-5 -8 -13 -16 -17 -16 -25 -5 -52 -17 -49 -23 3 -4 1 -13 -5 -21 -5 -9 -9 -10
-9 -3 0 9 -8 9 -32 1 -18 -5 -45 -9 -60 -9 -16 1 -28 -3 -28 -9 0 -5 -7 -7
-15 -4 -9 4 -19 -3 -26 -19 -9 -20 -18 -24 -44 -22 -26 1 -32 -1 -27 -13 3 -9
1 -13 -5 -9 -16 10 -25 -21 -13 -43 14 -25 47 -35 67 -18 12 9 15 9 9 1 -4 -7
-4 -13 -1 -13 3 0 13 15 21 33 10 21 14 24 10 9 -4 -21 -2 -23 22 -18 15 3 21
3 14 0 -6 -3 -10 -10 -6 -15 3 -5 18 -2 35 6 16 9 29 11 29 6 0 -6 8 -7 18 -4
15 6 15 5 3 -10 -7 -9 -10 -17 -5 -17 5 0 1 -5 -8 -11 -10 -5 -18 -17 -18 -24
0 -8 -6 -15 -13 -15 -22 0 -46 -33 -51 -71 -5 -47 2 -57 41 -55 37 1 47 22 28
59 -10 19 -10 28 -1 37 8 8 7 10 -5 5 -10 -4 -20 -2 -23 3 -6 9 30 26 48 23 5
-1 4 4 -2 12 -9 11 -9 14 2 14 14 0 14 -26 0 -50 -5 -8 -2 -8 9 2 9 7 17 9 17
4 0 -18 26 -10 27 9 1 10 -2 16 -7 13 -6 -3 -7 1 -4 9 7 18 13 19 33 7 9 -6
10 -11 2 -15 -18 -12 -5 -22 33 -24 49 -3 54 15 15 52 -18 17 -27 24 -20 14 8
-11 9 -18 1 -23 -5 -3 -10 -1 -10 5 0 6 -5 8 -11 4 -7 -4 -6 3 2 17 7 13 11
26 10 27 -2 2 1 7 5 10 4 4 4 0 0 -8 -5 -9 -2 -8 7 2 8 10 17 15 20 12 12 -12
61 -13 75 -2 11 9 11 13 0 19 -10 7 -8 9 5 9 10 0 16 4 13 9 -3 4 -18 6 -32 3
-19 -3 -25 -1 -20 7 9 15 -7 14 -22 -1 -9 -9 -13 -8 -17 3 -7 19 -61 17 -57
-2 2 -9 -3 -8 -16 4 -10 9 -22 14 -27 10 -4 -5 -1 2 6 15 8 12 19 22 25 22 6
0 17 7 25 16 7 8 21 13 31 11 10 -3 20 -1 23 3 3 5 20 6 38 4 24 -4 28 -2 17
5 -9 7 -10 11 -3 11 6 0 15 -5 18 -10 5 -7 11 -8 19 -1 15 12 41 -3 32 -18 -4
-6 -1 -11 6 -12 7 0 -1 -7 -18 -14 -17 -8 -37 -22 -45 -31 -8 -10 -9 -15 -3
-11 7 4 17 1 23 -7 17 -20 46 -14 81 17 24 22 31 35 27 53 -2 13 0 24 5 24 5
0 7 4 4 9 -3 4 19 8 48 7 47 -1 53 -3 43 -16 -11 -13 -10 -13 7 0 15 11 20 12
23 3 3 -7 10 -13 18 -13 19 0 40 -30 37 -55 -2 -15 5 -25 23 -33 15 -7 24 -8
21 -3 -3 5 1 12 10 15 14 5 14 9 3 22 -7 9 -12 31 -10 50 1 21 -2 34 -9 34 -7
0 -10 6 -7 13 6 16 -20 41 -28 27 -3 -6 0 -10 7 -10 7 0 1 -6 -14 -14 -15 -8
-35 -13 -45 -11 -10 2 -22 4 -28 4 -5 1 -3 5 5 10 8 6 18 7 22 4 5 -2 15 1 24
7 12 10 12 16 2 28 -10 13 -10 14 0 8 15 -9 16 6 0 22 -9 9 -9 12 0 12 7 0 12
-5 12 -11 0 -5 4 -7 10 -4 6 3 7 -1 4 -9 -4 -11 0 -16 11 -16 9 0 14 3 12 8
-10 15 19 27 62 27 35 -1 48 -7 67 -29 16 -17 24 -22 24 -12 0 10 7 13 24 10
15 -2 26 2 30 12 3 8 11 12 17 9 5 -4 20 1 31 12 12 10 18 12 14 6 -8 -15 10
-18 19 -3 3 6 13 10 21 10 9 0 12 -5 8 -12 -4 -7 -3 -8 5 -4 6 4 18 2 26 -4 8
-7 15 -10 15 -7 0 3 11 -5 25 -19 14 -14 30 -22 35 -19 6 3 10 2 10 -2 0 -5
10 -10 22 -10 17 -2 19 0 9 7 -12 7 -12 11 -2 24 16 19 32 12 24 -11 -5 -12
-3 -14 8 -7 8 4 22 7 32 6 9 -2 17 2 17 8 0 6 -4 9 -9 5 -5 -3 -13 0 -17 6 -4
7 -3 9 3 6 6 -4 22 4 36 17 14 13 28 21 31 18 3 -3 6 0 6 6 0 7 8 12 17 12 14
0 14 3 -4 22 -11 13 -18 29 -16 36 3 6 -3 12 -13 12 -16 0 -16 1 2 19 10 10
31 18 46 17 17 -1 30 4 33 13 5 13 10 11 25 -9 11 -14 20 -21 20 -17 0 4 9 3
20 -3 11 -6 18 -15 15 -19 -3 -5 2 -11 10 -15 8 -3 15 -11 14 -18 0 -10 -2
-10 -6 0 -7 17 -20 15 -20 -3 0 -8 8 -15 18 -15 13 0 16 -5 12 -16 -4 -11 -15
-15 -35 -12 -16 3 -33 -1 -39 -9 -15 -17 -30 -7 -22 15 3 9 3 14 -1 11 -9 -9
-16 -49 -8 -48 4 1 9 0 12 -1 19 -7 39 -7 35 1 -4 5 1 6 9 3 15 -6 31 -35 18
-33 -25 4 -34 -2 -23 -15 12 -15 57 -15 82 0 9 5 26 24 39 41 24 33 40 42 40
22 0 -5 -4 -7 -10 -4 -5 3 -10 2 -10 -3 0 -5 18 -9 39 -9 35 0 38 2 28 18 -6
10 -15 15 -20 12 -4 -3 -11 5 -14 16 -4 17 -8 19 -19 10 -10 -8 -14 -8 -14 0
0 6 -13 11 -30 11 -21 0 -30 5 -30 16 0 12 3 14 13 6 9 -8 17 -8 27 0 12 8 11
9 -4 4 -19 -7 -19 -6 -1 14 14 16 20 17 27 8 7 -11 12 -5 10 13 -1 3 10 4 23
1 14 -2 25 -11 25 -19 0 -8 -4 -11 -10 -8 -5 3 -10 2 -10 -4 0 -5 13 -18 29
-27 17 -10 27 -22 24 -28 -4 -5 1 -7 11 -3 10 4 15 3 11 -4 -4 -5 -15 -7 -26
-4 -21 7 -25 -5 -7 -23 8 -8 17 -8 30 -1 11 6 22 8 26 5 3 -3 0 -6 -7 -6 -7 0
-9 -5 -5 -12 4 -7 3 -8 -4 -4 -25 15 -11 -1 21 -24 19 -14 26 -17 18 -7 -12
15 -12 17 3 11 9 -3 16 -10 16 -15 0 -5 5 -9 11 -9 5 0 8 4 4 9 -3 6 3 14 12
20 10 6 15 11 11 11 -5 0 0 8 10 18 9 11 20 17 25 15 4 -3 7 -1 6 4 -4 21 2
33 17 33 9 0 23 8 30 17 8 11 13 13 14 6 0 -7 6 -13 14 -13 9 0 13 7 11 19 -2
13 1 18 9 15 19 -7 15 -33 -6 -40 -10 -3 -16 -10 -13 -15 4 -5 2 -9 -4 -9 -5
0 -11 5 -13 12 -3 7 -7 6 -11 -5 -4 -11 -1 -17 8 -17 7 0 17 -4 20 -10 3 -6
-2 -8 -12 -5 -10 3 -4 -1 12 -9 22 -10 32 -11 37 -3 5 8 8 7 9 -3 0 -8 6 -2
13 14 15 33 10 69 -8 59 -7 -4 -7 -1 1 8 10 12 10 18 0 28 -9 10 -8 14 6 22 9
6 17 16 17 23 0 7 10 18 23 25 29 15 87 22 87 10 0 -5 5 -9 11 -9 6 0 9 7 6
15 -4 8 -2 17 3 20 7 4 6 13 0 25 -8 15 -4 25 17 50 30 36 32 73 8 141 -28 82
-17 97 75 94 30 -1 63 2 74 7 16 9 15 12 -15 34 l-34 24 1 172 c1 95 0 178 -3
185 -3 7 -13 13 -22 13 -9 0 -27 6 -40 13 -19 10 -24 21 -26 57 -2 25 -5 57
-8 72 -3 17 0 32 9 39 25 20 43 2 50 -51 4 -28 13 -57 20 -65 8 -7 14 -18 14
-23 0 -6 7 -13 16 -16 8 -3 13 -9 10 -14 -2 -4 4 -13 14 -20 25 -15 35 0 33
50 -1 37 17 53 32 28 4 -6 11 -8 16 -5 5 4 9 1 9 -6 0 -7 7 -4 16 7 8 10 13
14 10 7 -4 -6 -2 -14 3 -17 14 -9 7 19 -9 40 -12 13 -12 18 -2 21 6 3 9 9 6
15 -4 6 -10 5 -15 -3 -6 -10 -9 -8 -9 7 0 12 -7 27 -16 34 -8 8 -14 9 -13 4 3
-20 -1 -35 -10 -30 -13 9 -34 -21 -25 -36 6 -10 3 -9 -9 1 -12 10 -14 17 -7
26 8 9 4 11 -15 7 -17 -3 -25 0 -26 9 -2 52 -9 80 -23 100 -17 25 -22 74 -7
83 14 9 5 91 -14 120 -12 18 -26 26 -46 26 -54 0 -65 84 -15 114 24 14 68 58
82 83 15 24 7 155 -11 204 -7 20 -19 64 -25 99 -19 102 -38 139 -89 171 -24
16 -58 29 -74 29 -15 0 -26 4 -22 10 3 5 -3 30 -15 54 -23 50 -25 91 -9 133
18 43 19 73 4 73 -8 0 -17 -4 -20 -10 -11 -17 -59 -10 -85 12 -16 14 -21 22
-12 25 17 6 15 30 -2 30 -8 0 -25 -6 -40 -14z m5 -457 c-16 -19 -22 -96 -8
-97 7 -1 65 0 129 1 l117 2 7 -27 c4 -16 2 -31 -5 -38 -14 -14 -329 -17 -348
-3 -7 4 -13 23 -13 42 0 24 6 36 23 45 39 20 82 73 81 99 0 14 5 31 10 39 9
11 12 7 14 -18 2 -18 -1 -38 -7 -45z m126 -13 c-4 -42 -27 -76 -35 -53 -2 6
-8 8 -13 4 -5 -3 -9 5 -10 18 -2 44 3 73 15 80 6 4 7 8 1 9 -5 0 -1 4 10 8 28
11 39 -11 32 -66z m82 -389 c6 4 8 -2 6 -15 -6 -29 -24 -40 -46 -29 -9 5 -20
6 -24 2 -5 -4 -5 -1 -1 6 5 8 1 21 -10 33 -15 16 -15 19 -2 14 9 -4 19 -1 23
5 5 8 12 6 25 -5 10 -9 23 -14 29 -11z m-252 -29 c-7 -7 -16 -10 -21 -5 -12
12 2 30 19 24 11 -5 12 -9 2 -19z m83 -17 c0 -5 -4 -8 -10 -8 -5 0 -10 10 -10
23 0 18 2 19 10 7 5 -8 10 -18 10 -22z m-36 -8 c-6 -6 -10 -2 -11 12 -2 16 1
18 10 9 7 -7 8 -14 1 -21z m57 7 c-10 -9 -11 -8 -5 6 3 10 9 15 12 12 3 -3 0
-11 -7 -18z m233 -173 c9 -3 16 -17 16 -30 0 -19 -5 -24 -25 -24 -20 0 -25 5
-25 23 0 34 8 41 34 31z m249 -318 c4 -10 1 -13 -8 -9 -8 3 -12 9 -9 14 7 12
11 11 17 -5z m-436 -599 c-4 -10 2 -13 19 -9 20 4 27 -2 39 -31 8 -19 17 -53
21 -76 4 -23 10 -41 14 -41 4 0 10 -9 13 -21 3 -12 3 -19 0 -16 -3 3 -16 2
-29 -3 -16 -6 -24 -6 -24 1 0 6 -4 7 -10 4 -5 -3 -19 -1 -31 6 -12 6 -19 7
-15 1 4 -6 -2 -8 -14 -5 -11 3 -20 8 -21 12 0 3 -2 15 -5 26 -11 51 -7 138 6
130 5 -3 15 3 22 15 15 23 23 27 15 7z m-220 -71 c11 -37 -3 -87 -30 -102 -21
-13 -36 -47 -33 -77 2 -15 -3 -32 -12 -39 -13 -10 -14 -10 -8 0 4 6 3 12 -3
12 -5 0 -11 -5 -13 -12 -5 -14 -48 -22 -48 -9 0 6 -9 8 -19 6 -11 -2 -25 3
-32 11 -13 16 -43 19 -33 3 4 -7 -1 -7 -16 1 -12 6 -28 9 -36 6 -8 -3 -14 0
-14 6 0 7 -4 7 -13 -1 -8 -6 -17 -8 -21 -4 -3 4 -27 8 -52 9 -26 1 -50 7 -55
15 -6 10 -11 6 -18 -14 -6 -15 -16 -28 -23 -29 -7 0 -17 -2 -23 -2 -5 -1 -16
-5 -22 -9 -7 -5 -13 -4 -13 2 0 6 -8 8 -17 5 -15 -5 -15 -4 -3 4 8 6 17 9 21
6 4 -2 5 6 1 18 -4 16 -2 19 9 14 8 -4 6 -1 -4 7 -16 14 -16 15 6 19 13 2 29
-2 36 -9 10 -11 16 -11 27 -2 11 9 18 8 32 -2 9 -7 14 -9 10 -5 -4 5 -2 16 5
24 10 13 9 14 -2 8 -11 -7 -11 -5 -3 9 5 10 37 27 71 37 34 10 59 23 56 28 -3
4 4 6 15 3 11 -3 20 0 20 6 0 6 6 10 13 8 6 -1 11 4 9 11 -1 8 2 11 8 7 5 -3
10 -2 10 2 0 12 38 14 45 2 4 -5 11 -7 16 -4 5 4 9 2 9 -4 0 -21 39 -6 45 17
5 19 9 21 19 13 10 -9 15 -8 20 4 4 11 2 14 -6 9 -7 -4 -8 -3 -4 5 4 6 11 9
15 7 4 -3 13 -1 21 5 23 14 26 12 37 -25z m-736 -264 c20 -13 24 -22 18 -37
-4 -11 -8 -14 -8 -7 -1 6 -5 12 -11 12 -5 0 -7 -8 -3 -17 4 -12 3 -15 -4 -8
-6 6 -14 21 -18 34 -5 18 -4 22 6 17 8 -4 5 0 -5 8 -27 22 -7 20 25 -2z m181
-22 c2 7 18 3 45 -11 34 -18 40 -25 33 -39 -5 -10 -7 -20 -5 -24 3 -3 2 -4 -2
-1 -3 3 -13 0 -20 -7 -11 -9 -17 -9 -24 3 -7 11 -9 10 -10 -6 0 -14 -2 -16 -6
-5 -3 8 -15 23 -25 35 l-19 20 4 -25 c2 -14 2 -20 0 -13 -2 7 -12 9 -21 7 -15
-5 -15 -4 -2 5 9 7 10 11 3 11 -6 0 -15 -5 -18 -10 -5 -8 -11 -7 -21 1 -12 10
-13 9 -7 -7 6 -16 5 -17 -9 -4 -13 13 -14 16 -2 23 8 4 14 15 14 23 0 10 8 15
23 14 39 -4 49 -1 41 13 -6 9 -4 9 8 -1 11 -9 17 -9 20 -2z m-27 -128 c-3 -3
-11 0 -18 7 -9 10 -8 11 6 5 10 -3 15 -9 12 -12z"/>
<path d="M2705 2070 c-3 -5 1 -10 10 -10 9 0 13 5 10 10 -3 6 -8 10 -10 10 -2
0 -7 -4 -10 -10z"/>
<path d="M2240 813 c0 -7 -3 -12 -7 -12 -21 3 -33 -2 -33 -16 0 -10 6 -12 18
-8 14 6 15 4 5 -8 -10 -12 -8 -15 7 -15 11 0 17 2 15 5 -3 2 0 10 6 17 7 9 7
18 0 31 -6 10 -11 12 -11 6z"/>
<path d="M2166 709 c3 -5 9 -7 14 -4 4 3 11 0 13 -5 3 -6 4 -5 3 1 -1 7 -10
13 -19 15 -9 1 -15 -2 -11 -7z"/>
<path d="M2151 693 c7 -12 15 -20 18 -17 3 2 -3 12 -13 22 -17 16 -18 16 -5
-5z"/>
<path d="M6487 2924 c-10 -10 -9 -42 2 -48 5 -3 11 0 14 7 6 16 -7 50 -16 41z"/>
<path d="M80 2892 c0 -5 7 -13 16 -16 10 -4 14 -1 12 6 -5 15 -28 23 -28 10z"/>
<path d="M6485 2851 c-3 -5 -2 -12 3 -15 5 -3 9 1 9 9 0 17 -3 19 -12 6z"/>
<path d="M333 2843 c9 -2 25 -2 35 0 9 3 1 5 -18 5 -19 0 -27 -2 -17 -5z"/>
<path d="M522 2838 c5 -15 37 -18 41 -3 1 6 -9 12 -22 13 -16 3 -22 -1 -19
-10z"/>
<path d="M1038 2806 c-43 -32 0 -56 142 -79 106 -17 286 -21 295 -7 8 13 -25
18 -155 24 -119 4 -212 26 -247 58 -15 14 -21 14 -35 4z"/>
<path d="M6485 2801 c-3 -5 -1 -12 5 -16 5 -3 10 1 10 9 0 18 -6 21 -15 7z"/>
<path d="M4866 2771 c-4 -5 -2 -12 3 -15 5 -4 12 -2 15 3 4 5 2 12 -3 15 -5 4
-12 2 -15 -3z"/>
<path d="M6997 2750 c3 -12 11 -16 24 -13 27 7 24 31 -5 31 -17 0 -22 -5 -19
-18z"/>
<path d="M4852 2732 c7 -9 15 -19 18 -22 3 -3 5 -12 5 -20 0 -9 9 -15 23 -14
12 0 22 -4 22 -9 0 -6 3 -7 7 -4 3 4 13 1 21 -6 13 -10 14 -9 7 2 -6 11 -4 13
8 8 9 -3 18 0 21 9 3 8 0 14 -7 14 -8 0 -7 4 3 9 10 7 2 13 -33 22 -26 6 -47
15 -47 19 0 4 -14 7 -31 8 -27 1 -29 -1 -17 -16z"/>
<path d="M6483 2705 c0 -8 4 -12 9 -9 5 3 6 10 3 15 -9 13 -12 11 -12 -6z"/>
<path d="M1866 2691 c17 -14 115 -31 177 -30 l62 1 -75 14 c-97 18 -175 25
-164 15z"/>
<path d="M8460 2565 c0 -14 2 -25 4 -25 2 0 6 11 8 25 3 14 1 25 -3 25 -5 0
-9 -11 -9 -25z"/>
<path d="M8465 2400 c0 -16 3 -31 6 -34 3 -3 5 7 5 23 -1 16 -3 32 -6 35 -3 3
-5 -8 -5 -24z"/>
<path d="M8469 2348 c-5 -16 -4 -46 2 -42 4 2 7 13 6 24 -1 17 -5 26 -8 18z"/>
<path d="M8467 2087 c-3 -8 -2 -20 3 -26 5 -9 8 -4 8 13 0 29 -3 32 -11 13z"/>
<path d="M8477 2013 c-12 -12 -8 -263 4 -263 6 0 9 7 6 15 -4 8 -2 17 3 20 6
4 7 13 1 24 -6 10 -6 23 -1 31 6 9 5 17 -3 22 -9 6 -8 8 2 8 9 0 10 4 4 13 -6
6 -10 40 -9 75 1 34 1 62 0 62 0 0 -4 -3 -7 -7z"/>
<path d="M7969 1859 c-1 -2 -3 -14 -4 -25 -2 -16 2 -20 17 -16 15 4 16 7 6 21
-7 9 -14 18 -15 20 -2 2 -4 2 -4 0z"/>
<path d="M7011 1834 c0 -11 3 -14 6 -6 3 7 2 16 -1 19 -3 4 -6 -2 -5 -13z"/>
<path d="M7950 1786 c0 -2 8 -10 17 -17 14 -12 16 -12 8 0 -6 11 -4 13 9 8 10
-4 15 -3 11 3 -6 9 -45 15 -45 6z"/>
<path d="M8132 1762 c-5 -9 -10 -34 -11 -54 -3 -38 2 -42 47 -41 6 1 12 -4 12
-9 0 -10 28 -3 77 19 18 8 37 11 44 7 8 -4 9 -3 5 4 -4 7 -3 12 2 12 13 0 23
27 16 44 -4 11 -20 13 -66 10 -40 -3 -71 1 -90 10 -25 13 -29 13 -36 -2z"/>
<path d="M8450 1688 c-42 -38 -40 -83 3 -53 18 13 37 13 105 -1 13 -3 22 -12
22 -22 0 -10 7 -27 15 -38 13 -16 16 -17 25 -4 8 12 10 10 10 -10 0 -14 4 -31
9 -39 6 -10 11 -5 17 20 4 19 8 45 9 59 2 44 12 50 89 50 45 0 79 5 91 13 28
21 3 30 -76 28 -38 -1 -78 3 -88 9 -11 5 -60 11 -110 13 -87 3 -92 2 -121 -25z"/>
<path d="M8295 1590 c-4 -7 -2 -16 6 -21 18 -11 23 -4 11 17 -7 12 -11 13 -17
4z"/>
<path d="M2208 1531 c-37 -16 -70 -26 -73 -23 -3 3 -5 -1 -5 -10 0 -8 7 -15
15 -15 8 0 12 4 9 8 -2 4 6 11 18 15 34 10 78 13 78 4 0 -18 67 6 79 29 15 28
-44 24 -121 -8z"/>
<path d="M2065 1499 c-16 -4 -43 -11 -60 -16 -16 -5 -48 -8 -70 -7 -22 0 -61
-3 -87 -8 -43 -9 -46 -11 -36 -28 7 -10 22 -21 34 -24 31 -8 84 13 84 33 0 10
9 17 20 18 35 3 43 -38 35 -187 -5 -74 -9 -157 -11 -183 -2 -51 10 -66 43 -52
10 5 27 10 38 12 10 2 22 9 26 15 4 7 8 68 7 137 0 132 8 214 23 243 22 42 5
60 -46 47z"/>
<path d="M7103 1395 c29 -28 56 -40 58 -26 0 3 2 14 4 23 5 25 -16 37 -58 35
l-37 -2 33 -30z"/>
<path d="M1275 1371 c-22 -9 -58 -18 -80 -20 -22 -1 -46 -9 -54 -17 -13 -12
-12 -13 7 -9 12 2 22 0 22 -5 0 -4 15 -5 33 -1 18 5 41 5 51 1 39 -13 106 1
145 31 18 15 27 16 37 8 10 -8 14 -8 14 0 0 6 -6 11 -12 11 -9 0 -8 4 2 10 8
5 10 10 5 10 -6 0 -16 -5 -22 -11 -8 -8 -13 -8 -17 0 -11 16 -86 12 -131 -8z"/>
<path d="M9590 1379 c0 -5 5 -7 10 -4 6 3 10 8 10 11 0 2 -4 4 -10 4 -5 0 -10
-5 -10 -11z"/>
<path d="M9586 1343 c-6 -14 -5 -15 5 -6 7 7 10 15 7 18 -3 3 -9 -2 -12 -12z"/>
<path d="M1035 1330 c-11 -5 -32 -9 -47 -9 -16 -1 -28 -6 -28 -12 0 -5 -4 -8
-8 -5 -4 2 -18 -3 -30 -13 -21 -15 -22 -20 -11 -44 12 -26 4 -129 -18 -242 -5
-22 -5 -67 0 -100 4 -33 8 -95 7 -137 -2 -86 12 -127 36 -107 8 6 14 8 14 3 0
-4 9 2 21 14 12 13 20 36 20 55 0 17 0 84 0 147 -1 63 2 144 5 180 3 36 6 85
8 110 5 67 16 99 37 105 10 4 19 11 19 16 0 6 4 8 9 4 5 -3 12 -1 16 5 4 6 10
8 15 5 5 -3 11 -1 14 4 4 7 -51 35 -58 30 -1 0 -10 -4 -21 -9z"/>
<path d="M3115 1305 c16 -51 16 -50 25 -35 5 8 5 21 -1 32 -12 22 -30 24 -24
3z"/>
<path d="M820 1269 c0 -5 5 -7 10 -4 6 3 10 8 10 11 0 2 -4 4 -10 4 -5 0 -10
-5 -10 -11z"/>
<path d="M446 1253 c-16 -3 -35 -11 -43 -19 -14 -14 -32 -14 -67 1 -11 5 -38
3 -63 -3 -24 -7 -52 -12 -63 -12 -22 0 -143 -61 -135 -68 9 -9 70 -8 90 2 11
5 45 10 75 11 67 3 120 14 120 25 0 5 14 6 30 3 33 -5 101 13 112 31 7 10 -9
37 -21 35 -3 -1 -19 -4 -35 -6z"/>
<path d="M610 1245 c0 -8 9 -15 19 -15 10 0 21 7 25 15 4 11 -1 15 -19 15 -16
0 -25 -6 -25 -15z"/>
<path d="M9773 1184 c1 -46 6 -80 11 -76 5 3 5 -1 1 -9 -5 -7 -10 -22 -10 -32
-3 -29 -21 -35 -134 -42 -58 -3 -141 -10 -183 -14 -42 -4 -75 -4 -73 -1 4 7
-52 23 -173 50 l-83 18 -9 -23 c-5 -13 -17 -28 -27 -34 -14 -8 -15 -11 -3 -12
8 -1 21 -1 28 0 8 1 12 -15 12 -53 0 -45 -4 -57 -20 -66 -12 -6 -31 -8 -43 -5
-12 3 -6 -3 14 -14 l35 -19 2 -79 c2 -73 11 -189 17 -223 8 -42 15 -128 21
-250 3 -74 7 -144 9 -155 1 -11 3 -48 4 -82 l1 -63 109 0 c61 0 112 4 115 9 3
5 8 26 10 47 2 22 10 63 16 93 7 32 11 98 8 161 -4 96 -2 109 14 119 10 6 25
11 33 11 8 0 15 7 15 16 0 8 5 12 10 9 6 -3 10 -2 10 3 0 6 10 5 25 -1 26 -12
42 -47 30 -66 -12 -21 -17 -101 -6 -114 6 -7 17 -41 25 -74 7 -33 24 -95 36
-137 l23 -76 37 0 c29 0 39 5 43 20 3 11 2 22 -2 24 -3 2 -7 64 -9 138 -2 73
-5 146 -8 162 -2 15 1 34 7 42 6 8 8 14 3 15 -5 0 3 4 18 9 41 12 66 2 70 -29
2 -15 9 -26 18 -26 51 -1 54 -49 5 -69 l-35 -15 0 -135 0 -136 94 0 93 0 8 42
c5 24 8 86 9 138 0 108 -23 175 -59 175 -21 -1 -37 14 -29 27 3 4 25 8 50 8
l44 0 -1 320 c-1 176 -4 321 -8 321 -25 5 -51 5 -51 0 0 -3 -18 -7 -40 -8 -30
-2 -40 1 -40 12 0 8 5 16 10 16 13 2 29 6 35 9 6 3 22 7 35 9 6 0 10 7 10 14
0 10 -17 12 -67 9 -80 -5 -93 6 -94 82 0 28 -4 60 -9 71 -5 13 -8 -9 -7 -61z
m-443 -233 c19 -64 22 -68 45 -63 15 2 25 0 25 -7 0 -6 4 -11 9 -11 4 0 7 15
5 33 -3 21 -1 27 5 18 5 -8 7 -20 4 -27 -2 -7 4 -17 15 -23 25 -13 38 -43 15
-34 -11 4 -14 3 -9 -6 4 -6 4 -11 -1 -10 -4 1 -23 -2 -41 -6 -25 -6 -32 -12
-27 -24 4 -9 9 -28 12 -44 7 -34 13 -38 61 -41 21 -1 43 -6 50 -10 19 -11 -2
-33 -39 -41 -39 -9 -41 -16 -24 -66 27 -74 -3 -92 -65 -39 -24 21 -30 30 -18
30 14 0 15 4 5 30 -6 16 -15 30 -20 30 -4 0 -5 -6 -1 -12 4 -8 3 -9 -2 -5 -5
5 -10 27 -11 50 -1 23 -2 48 -2 55 -1 9 -6 10 -19 3 -22 -11 -23 -8 -27 84 -1
33 -6 68 -10 78 -4 10 -1 27 10 43 9 14 14 31 12 37 -4 12 9 47 18 47 2 0 13
-31 25 -69z m244 -14 c11 11 36 12 36 1 0 -6 -6 -8 -14 -5 -22 9 -27 -5 -8
-20 10 -9 11 -12 2 -7 -8 4 -23 14 -32 22 -14 12 -18 12 -18 2 0 -7 -3 -11 -6
-7 -12 12 7 28 20 18 7 -6 16 -8 20 -4z m-92 -15 c9 -9 7 -12 -10 -12 -12 0
-22 5 -22 11 0 5 -5 7 -12 3 -6 -4 -8 -3 -5 4 9 13 33 10 49 -6z m156 -14 c7
-7 12 -8 12 -2 0 23 94 -6 104 -32 8 -21 -19 -41 -65 -49 -48 -8 -61 4 -54 47
4 19 0 30 -12 37 -10 6 -13 11 -7 11 5 0 15 -5 22 -12z m244 -21 c14 -22 3
-41 -29 -49 -31 -8 -54 20 -42 51 8 19 14 22 36 16 16 -3 31 -12 35 -18z m55
-160 c8 -13 -24 -37 -49 -37 -23 0 -34 26 -19 44 12 14 57 10 68 -7z m-193 -3
c21 -8 20 -31 -1 -42 -20 -11 -83 -4 -83 8 0 36 39 51 84 34z m43 -157 c17
-11 6 -32 -23 -46 -35 -15 -42 -14 -49 10 -11 35 36 58 72 36z m191 4 c18 -11
-31 -43 -52 -35 -16 6 -21 26 -9 37 9 10 45 8 61 -2z"/>
<path d="M9616 1214 c-7 -19 0 -34 17 -34 8 0 8 3 0 11 -6 6 -9 18 -6 25 3 8
3 14 0 14 -3 0 -8 -7 -11 -16z"/>
<path d="M7 1155 c-3 -7 -3 -15 0 -18 7 -7 33 3 33 13 0 14 -28 19 -33 5z"/>
<path d="M7147 1163 c-14 -13 -6 -33 13 -33 22 0 23 1 14 24 -7 17 -16 20 -27
9z"/>
<path d="M7274 1161 c-12 -12 26 -111 43 -111 18 0 27 45 13 70 -6 12 -10 27
-7 33 4 11 -39 18 -49 8z"/>
<path d="M8937 1049 c6 -20 28 -26 38 -10 3 5 0 13 -7 18 -24 14 -36 11 -31
-8z"/>
<path d="M3075 1020 c-3 -5 1 -10 9 -10 9 0 16 5 16 10 0 6 -4 10 -9 10 -6 0
-13 -4 -16 -10z"/>
<path d="M9021 926 c-10 -12 -9 -14 5 -12 10 2 20 8 22 14 5 17 -13 15 -27 -2z"/>
<path d="M8913 907 c-7 -12 7 -135 19 -166 5 -14 11 -33 13 -41 2 -8 7 -24 11
-34 4 -11 4 -17 -2 -14 -5 4 -9 -6 -10 -20 0 -15 -4 -54 -9 -87 -7 -52 -9
-190 -6 -472 l1 -73 84 0 85 0 -5 53 c-3 28 -7 66 -8 82 -11 90 -19 174 -21
200 -1 17 -3 30 -4 30 -7 0 -32 225 -26 235 5 8 -3 51 -21 115 -10 36 -11 58
-2 99 12 57 12 59 23 76 7 13 6 13 -7 2 -14 -11 -20 -11 -37 0 -12 7 -21 16
-21 19 0 10 -51 6 -57 -4z"/>
<path d="M1790 895 c-11 -13 -10 -14 4 -9 9 3 16 10 16 15 0 13 -6 11 -20 -6z"/>
<path d="M1660 870 c0 -5 5 -10 11 -10 5 0 7 5 4 10 -3 6 -8 10 -11 10 -2 0
-4 -4 -4 -10z"/>
<path d="M7450 853 c0 -21 3 -24 9 -14 5 8 7 20 4 28 -8 21 -13 15 -13 -14z"/>
<path d="M1660 839 c0 -5 5 -7 10 -4 6 3 10 8 10 11 0 2 -4 4 -10 4 -5 0 -10
-5 -10 -11z"/>
<path d="M7701 723 c0 -16 4 -37 8 -47 7 -19 8 -18 14 4 3 13 1 30 -4 37 -6 6
-8 17 -4 23 3 5 1 10 -4 10 -6 0 -11 -12 -10 -27z"/>
<path d="M2767 604 c-9 -9 2 -24 17 -24 7 0 13 7 13 15 0 15 -18 20 -30 9z"/>
<path d="M7710 565 c0 -28 3 -33 18 -28 14 5 15 3 5 -8 -7 -7 -13 -20 -13 -28
0 -10 6 -6 14 9 11 21 11 27 0 36 -8 6 -12 21 -9 32 2 12 0 22 -6 22 -5 0 -9
-16 -9 -35z"/>
<path d="M8343 586 c4 -10 7 -24 7 -32 0 -9 4 -12 10 -9 13 8 6 48 -10 53 -9
3 -11 -1 -7 -12z"/>
<path d="M2350 530 c-20 -12 -10 -19 14 -10 11 3 15 9 10 13 -6 3 -16 2 -24
-3z"/>
<path d="M2083 425 c0 -8 4 -12 9 -9 4 3 8 9 8 15 0 5 -4 9 -8 9 -5 0 -9 -7
-9 -15z"/>
<path d="M1476 421 c-8 -12 3 -41 15 -41 5 0 9 5 9 10 0 6 -5 10 -11 10 -6 0
-9 7 -5 15 6 16 1 20 -8 6z"/>
<path d="M1612 405 c-12 -14 -8 -19 11 -16 12 2 8 -17 -5 -22 -7 -2 -1 -4 14
-4 20 0 25 3 21 15 -5 11 -3 13 7 7 9 -5 11 -4 6 4 -4 6 -12 9 -17 6 -5 -4 -9
1 -9 9 0 20 -11 20 -28 1z"/>
<path d="M2573 390 c-2 -24 25 -40 50 -31 22 8 22 23 -1 36 -30 17 -48 15 -49
-5z"/>
<path d="M2165 384 c-9 -9 -14 -23 -11 -31 3 -8 1 -11 -4 -8 -6 3 -10 1 -10
-4 0 -11 19 -15 54 -11 12 1 16 -2 11 -11 -5 -8 -4 -10 4 -5 6 4 9 12 5 17 -3
5 0 17 8 26 9 12 10 15 0 9 -13 -8 -45 17 -35 28 4 3 4 6 0 6 -3 0 -13 -7 -22
-16z m20 -14 c3 -5 1 -10 -4 -10 -6 0 -11 5 -11 10 0 6 2 10 4 10 3 0 8 -4 11
-10z"/>
<path d="M1897 383 c-4 -3 -1 -13 5 -21 10 -12 9 -14 -7 -10 -11 2 -19 9 -18
16 2 8 -5 8 -26 1 -44 -16 -34 -41 17 -43 23 -1 42 3 42 9 0 5 4 4 9 -4 11
-17 45 -7 38 12 -2 6 -10 11 -17 9 -16 -4 -41 18 -34 29 6 10 0 12 -9 2z"/>
<path d="M2404 362 c3 -6 -2 -17 -13 -24 -27 -19 -12 -39 27 -36 17 1 29 5 26
9 -2 4 -15 6 -29 5 -13 -2 -22 0 -20 5 3 4 24 6 46 4 28 -2 38 0 31 7 -5 5
-21 11 -35 11 -14 1 -23 5 -21 9 2 4 -1 10 -7 14 -7 4 -9 3 -5 -4z"/>
<path d="M2020 340 c0 -12 26 -19 39 -10 9 5 4 9 -13 12 -14 3 -26 2 -26 -2z"/>
<path d="M1390 321 c0 -6 4 -12 8 -15 5 -3 9 1 9 9 0 8 -4 15 -9 15 -4 0 -8
-4 -8 -9z"/>
<path d="M2043 301 c-12 -9 -14 -31 -3 -31 6 0 10 6 10 13 0 9 2 9 9 -1 6 -11
9 -9 13 5 5 19 -12 27 -29 14z"/>
<path d="M1250 260 c-6 -11 -8 -20 -6 -20 3 0 10 9 16 20 6 11 8 20 6 20 -3 0
-10 -9 -16 -20z"/>
<path d="M1201 261 c-8 -6 -9 -11 -3 -15 6 -3 14 -1 17 5 9 14 2 20 -14 10z"/>
<path d="M1564 257 c3 -10 6 -23 6 -28 0 -6 9 -8 19 -4 11 3 22 1 26 -5 9 -15
32 -12 32 4 0 8 -6 12 -15 8 -10 -3 -13 -1 -8 6 4 7 1 12 -8 12 -8 0 -18 -5
-22 -11 -4 -8 -12 -3 -21 12 -8 14 -12 16 -9 6z"/>
<path d="M2304 245 c-4 -8 -10 -12 -15 -9 -5 3 -9 1 -9 -5 0 -12 20 -19 41
-14 11 3 15 12 12 24 -6 23 -21 25 -29 4z"/>
<path d="M1346 243 c-4 -4 -13 -8 -19 -8 -21 0 -18 -20 3 -21 11 -1 20 2 20 7
0 5 8 6 18 3 10 -4 13 -2 7 3 -5 4 -13 12 -16 16 -3 4 -9 4 -13 0z"/>
<path d="M1981 236 c-9 -10 -8 -15 3 -19 8 -3 17 1 20 8 7 20 -9 28 -23 11z"/>
<path d="M2479 230 c-17 -14 -20 -20 -9 -20 8 -1 22 -3 31 -5 9 -1 22 1 29 5
9 6 7 10 -9 15 -12 3 -19 11 -16 16 10 15 -1 11 -26 -11z"/>
<path d="M1135 197 c5 -17 3 -25 -7 -24 -7 0 -21 -1 -32 -1 -16 -2 -17 -4 -5
-19 10 -11 10 -14 2 -9 -7 4 -13 3 -13 -3 0 -17 15 -20 40 -8 26 13 40 70 20
82 -7 4 -9 -2 -5 -18z"/>
<path d="M7490 209 c0 -5 5 -7 10 -4 6 3 10 8 10 11 0 2 -4 4 -10 4 -5 0 -10
-5 -10 -11z"/>
<path d="M1359 207 c-5 -15 -4 -45 3 -41 4 3 8 1 8 -5 0 -5 -5 -13 -10 -16 -6
-4 -9 -19 -8 -35 2 -24 6 -28 23 -25 11 2 22 4 25 4 2 1 -1 6 -8 13 -7 7 -8
17 -2 28 7 13 5 22 -5 30 -11 9 -12 16 -5 25 8 9 6 14 -5 19 -8 3 -15 4 -16 3z"/>
<path d="M1582 192 c-5 -10 -8 -24 -7 -32 1 -8 -3 -20 -7 -27 -6 -7 -4 -14 3
-19 7 -4 15 -2 17 4 2 7 8 10 12 7 13 -8 50 17 50 33 0 7 -7 15 -15 18 -8 4
-13 10 -10 14 3 4 -4 10 -15 13 -13 3 -23 -1 -28 -11z"/>
<path d="M1810 210 c-1 -3 -4 -16 -6 -30 -3 -18 -2 -22 7 -13 6 6 9 19 6 29
-3 11 -6 17 -7 14z"/>
<path d="M7630 195 c-10 -12 -10 -15 1 -15 9 -1 8 -5 -5 -15 -11 -8 -16 -15
-10 -15 18 0 30 15 30 38 0 26 0 26 -16 7z"/>
<path d="M530 190 c-11 -7 -12 -10 -2 -10 7 0 10 -5 6 -11 -3 -6 -17 -9 -30
-6 -13 2 -21 0 -18 -4 3 -5 -1 -10 -8 -10 -7 -1 -24 -3 -38 -5 -14 -2 -41 -5
-60 -7 -59 -7 -100 -18 -95 -27 5 -8 -28 -19 -79 -26 -16 -2 -32 -7 -35 -12
-9 -13 -43 -24 -35 -11 3 6 -5 3 -20 -6 -15 -10 -26 -13 -26 -6 0 15 -22 10
-38 -9 -8 -8 -11 -10 -8 -4 5 11 -14 24 -35 24 -5 0 -9 -13 -9 -30 l0 -30 193
0 c140 0 196 3 205 12 10 10 15 10 21 0 6 -10 10 -8 14 10 4 12 2 24 -3 26 -5
2 -3 11 6 19 8 8 18 13 21 9 3 -3 13 0 21 7 10 7 13 8 9 1 -4 -7 0 -17 8 -24
8 -7 13 -15 11 -19 -2 -3 2 -14 9 -24 10 -15 24 -17 71 -15 53 3 59 5 55 23
-2 11 -4 34 -5 50 -1 26 2 30 24 27 17 -1 21 1 12 7 -8 4 -13 12 -11 17 1 5
-9 15 -22 21 -13 7 -23 18 -21 24 1 6 -2 7 -8 4 -6 -4 -21 1 -32 12 -14 12
-18 13 -13 3 7 -12 6 -13 -6 -3 -9 8 -20 9 -29 3z"/>
<path d="M1827 166 c-6 -15 11 -36 29 -36 7 0 14 -5 16 -11 2 -6 19 -9 38 -7
l35 3 -49 33 c-56 36 -62 38 -69 18z"/>
<path d="M2170 150 c-8 -5 -12 -12 -9 -15 4 -3 12 1 19 10 14 17 11 19 -10 5z"/>
<path d="M2470 128 l-21 -23 21 -9 c16 -7 26 -5 43 13 19 19 20 23 7 31 -22
14 -27 13 -50 -12z"/>
<path d="M2147 106 c-4 -10 -1 -13 9 -9 7 3 14 9 14 14 0 14 -17 10 -23 -5z"/>
<path d="M9505 88 c-2 -7 -6 -30 -10 -50 l-6 -38 36 0 c36 0 36 1 30 33 -13
58 -39 88 -50 55z"/>
<path d="M2217 69 c7 -7 15 -10 18 -7 3 3 -2 9 -12 12 -14 6 -15 5 -6 -5z"/>
<path d="M7756 68 c3 -5 10 -6 15 -3 13 9 11 12 -6 12 -8 0 -12 -4 -9 -9z"/>
<path d="M7807 66 c-4 -9 2 -12 16 -11 32 4 33 4 17 15 -20 13 -27 12 -33 -4z"/>
<path d="M8005 70 c-3 -6 1 -7 9 -4 18 7 21 14 7 14 -6 0 -13 -4 -16 -10z"/>
<path d="M1183 55 c0 -8 4 -15 8 -15 4 0 11 -9 14 -20 4 -14 15 -20 33 -20
l27 1 -24 19 c-13 11 -20 20 -16 20 3 0 0 7 -9 15 -8 8 -19 15 -24 15 -5 0 -9
-7 -9 -15z"/>
<path d="M1541 41 c-7 -13 -5 -20 9 -29 19 -12 34 -2 35 23 1 6 7 9 15 7 8 -2
12 0 8 4 -16 15 -58 13 -67 -5z"/>
<path d="M2245 49 c-4 -6 -5 -12 -2 -15 2 -3 7 2 10 11 7 17 1 20 -8 4z"/>
<path d="M7545 50 c3 -5 17 -10 31 -10 13 0 24 5 24 10 0 6 -14 10 -31 10 -17
0 -28 -4 -24 -10z"/>
<path d="M1080 30 c0 -11 7 -20 15 -20 17 0 18 2 9 24 -9 23 -24 20 -24 -4z"/>
<path d="M1306 34 c-9 -23 2 -34 33 -34 20 0 30 6 34 19 8 31 -55 45 -67 15z"/>
<path d="M1897 43 c-13 -12 -7 -33 10 -33 9 0 13 3 10 7 -4 3 -2 12 4 20 9 10
8 13 -3 13 -8 0 -18 -3 -21 -7z"/>
</g>
</svg>
